<?xml version="1.0" encoding="UTF-8"?>
<svg id="Layer_1" data-name="Layer 1" xmlns="http://www.w3.org/2000/svg" viewBox="0 0 1920 1080">
  <defs>
    <style>
      .cls-1 {
        font-size: 14.92px;
      }

      .cls-1, .cls-2 {
        font-family: CourierNewPSMT, 'Courier New';
      }

      .cls-1, .cls-2, .cls-3 {
        fill: #231f20;
      }

      .cls-2 {
        font-size: 12.2px;
      }

      .cls-4 {
        fill: #808184;
      }

      .cls-4, .cls-5, .cls-6 {
        stroke: #231f20;
        stroke-miterlimit: 10;
      }

      .cls-7 {
        font-family: AmericanTypewriter-Bold, 'American Typewriter';
        font-size: 144px;
      }

      .cls-7, .cls-3 {
        font-weight: 700;
      }

      .cls-8 {
        fill-rule: evenodd;
      }

      .cls-9 {
        fill: #fff;
      }

      .cls-5 {
        fill: #00adee;
      }

      .cls-3 {
        font-family: CourierNewPS-BoldMT, 'Courier New';
        font-size: 23.05px;
      }

      .cls-6 {
        fill: #faaf40;
      }
    </style>
  </defs>
  <rect class="cls-9" width="1920" height="1080"/>
  <path d="M1189.5,857.22c-.04-.33-.07-.67-.13-1-.08-.39-.19-.78-.3-1.17-.18-.66-.4-1.31-.67-1.95-.02-.05-.03-.1-.05-.15-.03-.07-.08-.12-.11-.19-.64-1.36-1.43-2.68-2.51-3.84l-49.23-52.63,51.57-55.44c4.35-4.68,4.98-11.43,2.12-16.77-1.5-3.34-4.24-6.15-7.91-7.6l-156.15-61.89c-.15-.06-.3-.08-.46-.13-.52-.19-1.04-.32-1.57-.45-.41-.1-.82-.2-1.22-.26-.51-.08-1.02-.1-1.54-.12-.43-.01-.85-.04-1.28-.02-.51.02-1.01.1-1.51.18-.42.07-.83.12-1.24.22-.5.12-.99.3-1.48.48-.39.14-.77.27-1.15.44-.46.21-.89.47-1.33.73-.38.23-.77.45-1.13.71-.37.27-.71.58-1.06.88-.39.34-.77.68-1.12,1.07-.11.12-.24.21-.35.33l-48.06,56.29-48.06-56.29c-.1-.12-.23-.2-.33-.32-.36-.4-.76-.76-1.16-1.11-.33-.29-.66-.59-1.01-.84-.38-.28-.79-.51-1.19-.75-.41-.25-.83-.5-1.26-.69-.4-.18-.82-.33-1.23-.48-.47-.17-.92-.33-1.4-.45-.44-.11-.88-.17-1.33-.23-.48-.07-.94-.15-1.42-.17-.45-.02-.9,0-1.36.02-.5.02-.98.04-1.47.11-.43.06-.85.17-1.28.27-.51.12-1.02.25-1.53.43-.16.06-.31.07-.47.13l-156.17,61.89c-3.68,1.46-6.42,4.26-7.91,7.6-2.85,5.33-2.23,12.09,2.12,16.77l48.82,52.48-51.99,55.58c-1.08,1.16-1.88,2.47-2.51,3.84-.03.07-.08.12-.11.19-.02.05-.03.1-.05.15-.28.64-.5,1.28-.67,1.94-.11.39-.22.78-.3,1.17-.06.33-.1.67-.13,1-.09.72-.15,1.43-.13,2.14v.02c.12,5.38,3.17,10.5,8.39,12.92l50.22,23.27v80.84c0,.09.02.17.02.26-.17,5.77,3.09,11.34,8.71,13.79l158.22,69.09c.1.04.19.05.29.09.72.3,1.47.53,2.22.71.24.06.47.11.71.16.84.16,1.7.26,2.57.27h.08c.13,0,.26-.02.39-.03.09,0,.17.02.27.02,3.08,0,5.93-.97,8.28-2.6l152.75-67.01c5.71-2.5,8.97-8.24,8.65-14.12,0-.21.06-.41.06-.63v-80.32l51.34-23.79c5.21-2.42,8.27-7.53,8.39-12.92v-.02c.01-.71-.04-1.42-.14-2.14ZM1021.99,914l-37.47-40.28,128.24-60.14,38.08,40.71-128.86,59.71ZM895.73,914l-87.92-40.74c-.45-.23-.89-.45-1.36-.63l-39.57-18.34,37.78-40.39,128.82,59.52-37.75,40.58ZM898.16,685.52l36.1,42.27-125.23,49.73-38.51-41.4,127.64-50.6ZM1025.06,685.52l127.64,50.59-40.25,43.28-124.46-50.45,37.08-43.42ZM945.6,846.93l-107.45-49.65,107.45-42.66s0,92.31,0,92.31ZM974.73,754.99l104.25,42.26-104.25,48.88s0-91.14,0-91.14ZM892.83,944.75c1.98.92,4.06,1.35,6.11,1.35,1.86,0,3.68-.38,5.38-1.06,2.13-.76,4.13-1.97,5.77-3.74l35.49-38.16v121.12l-129.79-56.67v-58.52l77.03,35.69ZM1100.78,968.31l-126.06,55.3v-117.65l32.89,35.36c1.65,1.77,3.64,2.98,5.77,3.74,1.71.68,3.53,1.06,5.38,1.06,2.05,0,4.13-.43,6.11-1.35l75.9-35.17v58.72h0Z"/>
  <g>
    <g>
      <rect class="cls-4" x="1289.7" y="387.05" width="244.09" height="341.73" transform="translate(808 -834.85) rotate(45)"/>
      <text class="cls-3" transform="translate(1474.49 416.92) rotate(45)"><tspan x="0" y="0">Dead Cat</tspan></text>
      <g>
        <path d="M1496.23,585.32l-3.17-3.17c5.12-2.93,10.12-6.46,14.38-10.73l49-50.46c1.46-1.46,1.95-3.41,1.46-5.36-.49-1.95-1.83-3.53-3.66-4.14l-31.69-11.94c-3.9-11.94-10.85-23.04-19.99-32.18-9.14-9.14-20.35-15.97-32.3-20.11l-11.58-31.57c-.85-1.83-2.32-3.29-4.39-3.66-1.95-.49-4.02.12-5.36,1.46l-50.34,49.12c-4.39,4.39-7.92,9.14-10.73,14.38l-3.53-3.53c-.98-.98-2.68-.97-3.66,0-.98.97-.98,2.68,0,3.66l4.75,4.75c-1.95,4.14-3.41,8.53-4.27,13.04l-9.63-4.02c-1.34-.61-2.8.12-3.41,1.46-.49.97-.12,2.07.61,2.8.24.24.49.49.85.61l10.48,4.39c-.49,3.9-.85,7.92-.73,11.94h-13.16c-1.46,0-2.56,1.1-2.56,2.56,0,.73.37,1.34.85,1.83s1.1.85,1.83.85h13.41c1.58,17.67,9.51,35.34,23.64,49.48,14.02,14.02,31.57,21.82,49.24,23.64v13.16c0,.73.37,1.34.85,1.83s1.1.85,1.83.85c1.46,0,2.56-1.1,2.56-2.56l-.25-13.16c4.02.12,7.92-.12,11.94-.73l4.27,10.36c.12.37.37.61.61.85.73.73,1.71.98,2.8.61,1.34-.61,1.95-1.95,1.46-3.41l-3.9-9.26c4.63-.98,9.02-2.44,13.28-4.27l4.39,4.39c.98.98,2.68.97,3.66,0s1.1-2.8.12-3.78h0ZM1472.83,584.1l-5.48-13.04c-.61-1.34-1.95-1.95-3.41-1.46-1.34.61-1.95,1.95-1.46,3.41l4.88,11.94c-3.29.37-6.58.49-9.87.37v-11.21c0-1.46-1.1-2.56-2.56-2.56-1.46,0-2.56,1.1-2.56,2.56v10.97c-16.33-1.71-32.54-9.14-45.46-22.06-13.04-13.04-20.48-29.49-22.06-45.7h10.73c1.46,0,2.56-1.1,2.56-2.56,0-1.46-1.1-2.56-2.56-2.56l-11.09-.12c-.12-3.29.12-6.7.49-9.99l11.7,4.87c1.34.61,2.8-.12,3.41-1.46.61-1.34-.12-2.8-1.46-3.41l-12.8-5.24c.85-3.78,1.95-7.56,3.41-11.21l12.19,12.19c.98.98,2.68.97,3.66,0,.98-.97,1.1-2.56.12-3.53l-13.53-13.53c2.8-5.24,6.22-10.12,10.6-14.5l50.34-49.12c.24-.24.49-.24.61-.12.24,0,.37.12.49.49l16.82,45.58c.61,1.34,1.95,1.95,3.29,1.58,1.34-.61,1.95-1.95,1.58-3.29l-2.8-7.43c9.75,3.9,18.77,9.75,26.33,17.31,7.56,7.56,13.41,16.58,17.31,26.33l-7.68-2.8c-1.34-.61-2.8.12-3.29,1.58-.61,1.34.12,2.8,1.58,3.29l45.58,16.82c.37.12.37.37.49.49,0,.24,0,.49-.12.61l-47.78,49.24-1.22,1.22c-4.39,4.39-9.26,7.8-14.5,10.6l-14.01-14.01c-.98-.98-2.68-.97-3.66,0-.98.97-.85,2.56.12,3.53l12.43,12.43c-3.78,1.58-7.43,2.8-11.33,3.53h0Z"/>
        <path d="M1442.48,527.18c-8.04-8.04-21.21-8.04-29.25,0-2.32,2.32-3.29,4.51-3.17,6.83.24,3.41,3.29,5.48,6.7,7.92,1.95,1.46,4.14,2.92,6.09,4.87s3.41,4.14,4.87,6.09c1.22,1.71,2.32,3.29,3.53,4.51,1.22,1.22,2.68,2.19,4.51,2.32,2.19.24,4.39-.73,6.83-3.17,7.92-8.17,7.92-21.33-.12-29.37h0ZM1436.15,554.48c-.97,0-2.68-2.44-4.14-4.63-1.46-2.19-3.17-4.63-5.48-6.95-2.32-2.32-4.75-4.02-6.95-5.48-2.19-1.46-4.51-3.05-4.63-4.14,0-.24,0-.97,1.71-2.68,6.09-6.09,15.84-6.09,21.94,0s6.09,15.84,0,21.94c-1.34,1.83-2.19,1.95-2.44,1.95h0Z"/>
        <path d="M1450.65,488.06c0-1.46-1.1-2.56-2.56-2.56h-6.83s0-6.83,0-6.83c0-1.46-1.1-2.56-2.56-2.56-1.46,0-2.56,1.1-2.56,2.56v6.83h-6.83c-1.46,0-2.56,1.1-2.56,2.56,0,.73.37,1.34.85,1.83s1.1.85,1.83.85h6.83v6.83c0,.73.37,1.34.85,1.83s1.1.85,1.83.85c1.46,0,2.56-1.1,2.56-2.56v-6.83h6.83c1.22-.24,2.44-1.46,2.32-2.8h0Z"/>
        <path d="M1484.17,533.52h6.83c1.46,0,2.56-1.1,2.56-2.56,0-1.46-1.1-2.56-2.56-2.56h-6.83v-6.83c0-1.46-1.1-2.56-2.56-2.56-1.46,0-2.56,1.1-2.56,2.56v6.83h-6.83c-1.46,0-2.56,1.1-2.56,2.56,0,.73.37,1.34.85,1.83s1.1.85,1.83.85h6.83v6.83c0,.73.37,1.34.85,1.83s1.1.85,1.83.85c1.46,0,2.56-1.1,2.56-2.56l-.24-7.07Z"/>
      </g>
      <g>
        <rect class="cls-9" x="1232.87" y="565.93" width="219.68" height="122.05" rx="12" ry="12" transform="translate(836.6 -765.81) rotate(45)"/>
        <text class="cls-1" transform="translate(1348.61 576.75) rotate(45)"><tspan x="0" y="0">-1 Cats</tspan></text>
        <text class="cls-2" transform="translate(1298.58 645.19) rotate(45)"><tspan x="0" y="0">Uh oh</tspan></text>
      </g>
    </g>
    <g>
      <rect class="cls-5" x="1167.87" y="286.92" width="244.09" height="341.73" transform="translate(401.71 -583.62) rotate(30)"/>
      <text class="cls-3" transform="translate(1320.02 308.81) rotate(30)"><tspan x="0" y="0">Cat Toy</tspan></text>
      <g>
        <path d="M1333.76,370.72c3.79-6.57,1.54-14.96-5.02-18.75s-14.96-1.54-18.75,5.02-1.54,14.96,5.02,18.75c6.57,3.79,14.96,1.54,18.75-5.02ZM1318.31,369.3c-3.13-1.81-4.19-5.75-2.38-8.88s5.75-4.19,8.88-2.38,4.19,5.75,2.38,8.88-5.44,4.37-8.88,2.38Z"/>
        <path d="M1350.67,396.33c6.57,3.79,14.96,1.54,18.75-5.02,3.79-6.57,1.54-14.96-5.02-18.75-6.57-3.79-14.96-1.54-18.75,5.02-3.79,6.57-1.54,14.96,5.02,18.75ZM1360.78,378.81c3.13,1.81,4.19,5.75,2.38,8.88s-5.75,4.19-8.88,2.38-4.19-5.75-2.38-8.88c1.81-3.13,5.75-4.19,8.88-2.38Z"/>
        <path d="M1382.01,418.6c-2.19-1.26-4.92-1.59-7.39-.93s-4.67,2.31-5.93,4.5-1.59,4.92-.93,7.39c2.51,9.37-.29,15.68-8.69,20.84-3.31-12.33-12.48-23.89-27.09-33.99l6.5-11.26c1.7,1.4,3.39,2.79,4.96,3.7,13.14,7.58,30.41,2.96,37.99-10.18,7.58-13.14,2.96-30.41-10.18-37.99-6.88-3.97-15.08-4.95-22.52-2.16-1.49-7.53-6.25-14.45-13.13-18.43-13.14-7.58-30.41-2.96-37.99,10.18-7.58,13.14-2.96,30.41,10.18,37.99,1.88,1.08,3.93,1.85,5.68,2.44l-7.4,12.82c-7.97-2.1-16.65-2.94-25.88-2.85-1.14-5.25-4.26-9.96-8.95-12.67-9.07-5.24-20.6-1.88-25.66,6.87-2.35,4.07-2.95,8.72-2.07,12.98-5.79,2.08-10.64,4.7-14.86,7.68-.18.31-.49.13-.67.44-5.57,3.87-9.71,8.16-12.42,12.85-3.79,6.57-1.54,14.96,5.02,18.75l89.77,51.83c10.64,6.14,24.12,5.17,33.48-2.36,4.09-3.48,7.56-7.31,10.27-12.01,2.53-4.38,4.25-8.81,5.48-13.1,31.01-12.54,30.57-34.9,27.27-47.23-.97-2.65-2.62-4.85-4.81-6.11h0ZM1303.73,353.38c5.6-9.7,18.43-13.13,28.12-7.54,6.26,3.61,10.08,9.99,10.27,17.61.08,1.3.66,2.47,1.91,3.19s2.55.64,3.72.06c6.2-3.51,14.13-3.52,20.38.09,9.7,5.6,13.13,18.43,7.54,28.12-5.6,9.7-18.43,13.13-28.12,7.54-2.5-1.44-4.64-3.52-6.29-5.72-.76-.85-1.38-1.22-2.19-1.26l-.31-.18c-.31-.18-.81-.05-1.3.08l-.49.13c-.18.31-.49.13-.67.44l-.36.63-.36.63-8.85,15.33c-3.89-2.66-8.13-4.7-12.87-6.6l9.21-15.95.36-.63c.18-.31.36-.63.05-.81.18-.31-.13-.49-.13-.49.18-.31-.13-.49.05-.81q-.13-.49-.44-.67s-.31-.18-.13-.49c-.31-.18-.44-.67-1.07-1.04-.31-.18-.94-.54-1.43-.41-2.73-.33-5.59-1.14-8.1-2.59-10.64-6.14-14.07-18.97-8.47-28.66ZM1221.66,431.95c1.81-3.13,4.73-6.03,8.15-9.06,6.92,6.08,9.07,16.08,5.18,24.26l-10.95-6.32c-3.13-1.81-4.19-5.75-2.38-8.88ZM1339,490.93c-6.97,5.57-17.05,6.42-25.19,1.72l-72.57-41.9c5.33-10.68,2.88-23.78-5.19-32.19,3.68-2.04,8.17-4.04,12.79-5.54,0,0,.49-.13.67-.44s.49-.13.67-.44l.36-.63.36-.63q.18-.31.05-.81.18-.31.05-.81c.18-.31-.13-.49.05-.81l-.13-.49c-1.42-3.32-1.36-7.04.63-10.48,3.25-5.63,10.47-7.3,15.79-4.23,3.75,2.17,5.8,5.85,5.87,10.06-.18.31.13.49.13.49l.13.49c.31.18.13.49.44.67s.13.49.44.67l.63.36.63.36q.31.18.81.05.31.18.81.05c10.71-.49,21.01.45,29.42,3.22,7.16,2.05,12.61,5.61,18.37,9.36,27.07,18.13,34.55,39.13,22.09,60.71-2.08,5.05-4.88,8.45-8.11,11.16h0ZM1360.4,463.25c.1-1.61.06-3.72-.15-5.51,13.2-6.97,17.68-16.9,14.11-30.22-.13-.49.23-1.12.59-1.74s.85-.76,1.53-1.2c.49-.13,1.3-.08,1.93.28s.76.85,1.2,1.53c4.05,16.1-2.37,28.66-19.2,36.87h0Z"/>
        <path d="M1263.4,416.01c-5.32-3.07-12.22-1.22-15.3,4.1-3.07,5.32-1.22,12.22,4.1,15.3,5.32,3.07,12.22,1.22,15.3-4.1,3.38-5.14,1.53-12.04-4.1-15.3ZM1255.81,429.14c-1.88-1.08-2.54-3.55-1.45-5.43s3.55-2.54,5.43-1.45,2.54,3.55,1.45,5.43-3.24,2.72-5.43,1.45Z"/>
      </g>
      <g>
        <rect class="cls-9" x="1131.25" y="481.32" width="219.68" height="122.05" rx="12" ry="12" transform="translate(437.45 -547.89) rotate(30)"/>
        <text class="cls-1" transform="translate(1179.53 460.99) rotate(30)"><tspan x="0" y="0">Draw an an additional </tspan><tspan x="-8.95" y="17.9">card from the same deck</tspan></text>
        <text class="cls-2" transform="translate(1133.42 531.09) rotate(30)"><tspan x="0" y="0">I think they prefer the box</tspan></text>
      </g>
    </g>
    <g>
      <rect class="cls-4" x="386.21" y="387.05" width="244.09" height="341.73" transform="translate(-245.64 522.8) rotate(-45)"/>
      <text class="cls-3" transform="translate(377.03 485.39) rotate(-45)"><tspan x="0" y="0">Kitten</tspan></text>
      <g>
        <path d="M462.64,525.47c-.49.49-1.34.49-1.83,0-1.65-1.65-4.39-1.71-6.09,0s-1.71,4.39,0,6.09c.49.49.49,1.34,0,1.83s-1.34.49-1.83,0c-2.68-2.68-2.68-7.07,0-9.75s7.07-2.68,9.75,0c.49.49.49,1.34,0,1.83Z"/>
        <path d="M484.15,503.96c-.49.49-1.34.49-1.83,0-1.65-1.65-4.39-1.71-6.09,0s-1.71,4.39,0,6.09c.49.49.49,1.34,0,1.83s-1.34.49-1.83,0c-2.68-2.68-2.68-7.07,0-9.75s7.07-2.68,9.75,0c.49.49.55,1.28,0,1.83Z"/>
        <path d="M485.79,519.25c-.37-.49-.98-.61-1.58-.37-.67.3-.91,1.04-.61,1.71.37.85.06,2.5-1.28,3.84-1.46,1.46-3.23,1.77-4.08,1.16v-3.17c0-.73-.79-1.04-1.28-.55l-4.27,4.27c-.49.49-.12,1.34.55,1.28h3.17c.67.79.37,2.56-1.16,4.08-1.4,1.28-2.99,1.65-3.84,1.28-.67-.3-1.46,0-1.71.61-.3.55-.06,1.16.37,1.58.18.18.43.43.73.49,5.12,1.1,9.87,0,12.61-2.74s3.84-7.5,2.74-12.61c0-.37-.18-.67-.37-.85ZM477.32,532.96c1.28-1.4,1.95-3.05,1.95-4.51,1.46,0,3.11-.67,4.51-1.95-.3,1.77-1.1,3.29-2.13,4.33s-2.56,1.83-4.33,2.13Z"/>
        <path d="M501.82,495.06l-1.58,1.58c-1.46-2.56-3.23-5.06-5.36-7.19h0l-25.23-24.5c-.73-.73-1.71-.98-2.68-.73-.98.24-1.77.91-2.07,1.83l-5.97,15.84c-5.97,1.95-11.52,5.42-16.09,9.99s-7.98,10.18-10.05,16.15l-15.78,5.79c-.91.43-1.65,1.16-1.83,2.19-.24.98.06,2.01.73,2.68l24.56,25.17c2.19,2.19,4.57,3.96,7.19,5.36l-1.77,1.77c-.49.49-.49,1.34,0,1.83s1.34.49,1.83,0l2.38-2.38c2.07.98,4.27,1.71,6.52,2.13l-2.01,4.81c-.3.67.06,1.4.73,1.71.49.24,1.04.06,1.4-.3.12-.12.24-.24.3-.43l2.19-5.24c1.95.24,3.96.43,5.97.37v6.58c0,.73.55,1.28,1.28,1.28.37,0,.67-.18.91-.43s.43-.55.43-.91v-6.7c8.84-.79,17.67-4.75,24.74-11.82s10.91-15.78,11.82-24.62h6.58c.37,0,.67-.18.91-.43s.43-.55.43-.91c0-.73-.55-1.28-1.28-1.28l-6.58.12c.06-2.01-.06-3.96-.37-5.97l5.18-2.13c.18-.06.3-.18.43-.3.37-.37.49-.85.3-1.4-.3-.67-.98-.98-1.71-.73l-4.63,1.95c-.49-2.32-1.22-4.51-2.13-6.64l2.19-2.19c.49-.49.49-1.34,0-1.83s-1.4-.55-1.89-.06ZM501.21,506.76l-6.52,2.74c-.67.3-.98.98-.73,1.71.3.67.98.98,1.71.73l5.97-2.44c.18,1.65.24,3.29.18,4.94h-5.61c-.73,0-1.28.55-1.28,1.28s.55,1.28,1.28,1.28h5.48c-.85,8.17-4.57,16.27-11.03,22.73s-14.75,10.24-22.85,11.03v-5.36c0-.73-.55-1.28-1.28-1.28s-1.28.55-1.28,1.28l-.06,5.55c-1.65.06-3.35-.06-5-.24l2.44-5.85c.3-.67-.06-1.4-.73-1.71-.67-.3-1.4.06-1.71.73l-2.62,6.4c-1.89-.43-3.78-.98-5.61-1.71l6.09-6.09c.49-.49.49-1.34,0-1.83s-1.28-.55-1.77-.06l-6.76,6.76c-2.62-1.4-5.06-3.11-7.25-5.3l-24.56-25.17c-.12-.12-.12-.24-.06-.3,0-.12.06-.18.24-.24l22.79-8.41c.67-.3.98-.98.79-1.65-.3-.67-.98-.98-1.65-.79l-3.72,1.4c1.95-4.88,4.88-9.38,8.65-13.16s8.29-6.7,13.16-8.65l-1.4,3.84c-.3.67.06,1.4.79,1.65.67.3,1.4-.06,1.65-.79l8.41-22.79c.06-.18.18-.18.24-.24.12,0,.24,0,.3.06l24.62,23.89h0l.61.61c2.19,2.19,3.9,4.63,5.3,7.25l-7.01,7.01c-.49.49-.49,1.34,0,1.83s1.28.43,1.77-.06l6.22-6.22c.79,1.89,1.4,3.72,1.77,5.67Z"/>
      </g>
      <g>
        <rect class="cls-9" x="467.45" y="565.94" width="219.68" height="122.05" rx="12" ry="12" transform="translate(-274.24 591.84) rotate(-45)"/>
        <text class="cls-1" transform="translate(527.08 621.06) rotate(-45)"><tspan x="0" y="0">+2 Cats</tspan></text>
        <text class="cls-2" transform="translate(532.89 712.03) rotate(-45)"><tspan x="0" y="0">Good things come in small</tspan><tspan x="62.25" y="14.65">packages</tspan></text>
      </g>
    </g>
    <g>
      <rect class="cls-5" x="508.04" y="286.92" width="244.09" height="341.73" transform="translate(-144.48 376.37) rotate(-30)"/>
      <text class="cls-3" transform="translate(504.14 364.15) rotate(-30)"><tspan x="0" y="0">Cataclysm</tspan></text>
      <g>
        <path d="M653.9,342.33c-.68-.49-1.62-.42-2.22.15l-24.77,23.42-4.71-54c-.07-.84-.74-1.51-1.59-1.59-.85-.07-1.62.47-1.84,1.29l-14.25,53.18-16.23-28.11c-.39-.67-1.18-1.01-1.93-.82-.75.19-1.29.85-1.32,1.63l-1.94,50.6-17.52-24.38c-.43-.6-1.18-.86-1.89-.66-.71.2-1.21.82-1.27,1.55-.07.86-6.57,86.45-9.49,98-2.03,8.68-.7,17.71,3.76,25.43,9.63,16.68,31.03,22.42,47.71,12.79,7.72-4.46,13.39-11.61,15.94-20.04l33.73-91.78c.25-.69.05-1.46-.51-1.94-.56-.47-1.36-.54-2-.18l-22.48,12.98,25.39-55.37c.35-.76.11-1.66-.57-2.15h0ZM623.62,403.36c-.32.69-.15,1.51.41,2.02.56.51,1.39.6,2.05.22l23.05-13.31-32.1,87.35c-2.32,7.68-7.42,14.11-14.37,18.12-15.01,8.67-34.28,3.51-42.94-11.51-4.01-6.95-5.22-15.08-3.39-22.85,2.61-10.33,7.78-75.32,9.21-93.79l17.7,24.62c.43.61,1.21.87,1.92.65.71-.22,1.21-.86,1.24-1.6l1.9-49.64,15.31,26.52c.35.61,1.04.95,1.74.86.7-.09,1.28-.6,1.46-1.28l12.78-47.68,4.16,47.73c.06.67.49,1.24,1.12,1.48.63.24,1.34.1,1.82-.36l20.86-19.72-23.92,52.16Z"/>
        <path d="M604.8,397.83c-1.59,1.83-39.11,45.08-43.64,61.97-1.73,6.45-3.44,16.02,1.58,24.72,7.7,13.34,24.83,17.93,38.17,10.23,8.7-5.02,12-14.17,13.73-20.62,4.53-16.89-6.34-73.11-6.81-75.49-.13-.66-.62-1.18-1.26-1.35-.65-.17-1.33.03-1.77.54h0ZM611.26,473.23c-2.49,9.29-6.33,15.16-12.1,18.49-11.68,6.74-26.66,2.73-33.4-8.95-3.33-5.77-3.72-12.78-1.23-22.07,3.69-13.76,32.09-47.88,40.54-57.82,2.35,12.84,9.88,56.58,6.19,70.35h0Z"/>
        <g>
          <path d="M606.46,465.93l-.91.52c-.35-1.33-.85-2.68-1.55-3.9l-8.43-14.12c-.24-.42-.65-.65-1.12-.65-.47,0-.91.2-1.16.58l-4.62,6.44c-2.93.16-5.86,1.06-8.48,2.57s-4.84,3.63-6.5,6.08l-7.83.7c-.46.08-.88.32-1.09.77-.23.41-.22.92,0,1.3l8.05,14.34c.73,1.26,1.59,2.34,2.6,3.29l-1.01.58c-.28.16-.38.55-.22.83.16.28.55.38.83.22l1.36-.79c.82.69,1.72,1.29,2.69,1.75l-1.49,1.93c-.22.27-.14.64.12.86.19.17.46.15.67.03.07-.04.14-.08.19-.16l1.63-2.1c.85.35,1.74.67,2.65.89l-.8,2.97c-.09.33.09.64.42.73.17.04.33,0,.46-.08s.26-.2.3-.36l.81-3.03c4.09.71,8.56,0,12.61-2.35s6.84-5.81,8.32-9.69l2.97.8c.17.04.33,0,.46-.08s.26-.2.3-.36c.09-.33-.09-.64-.42-.73l-2.99-.74c.27-.9.45-1.8.56-2.74l2.6-.34c.09,0,.16-.05.23-.09.21-.12.32-.33.31-.6-.06-.34-.32-.56-.68-.54l-2.33.32c.06-1.11,0-2.18-.16-3.26l1.26-.73c.28-.16.38-.55.22-.83s-.57-.42-.85-.26h0ZM604.77,471.14l-3.28.45c-.34.06-.56.32-.54.68.06.34.32.56.68.54l2.99-.38c-.12.77-.29,1.52-.51,2.25l-2.53-.68c-.33-.09-.64.09-.73.42-.09.33.09.64.42.73l2.48.66c-1.37,3.59-4.03,6.8-7.73,8.93s-7.9,2.84-11.66,2.22l.65-2.42c.09-.33-.09-.64-.42-.73-.33-.09-.64.09-.73.42l-.7,2.5c-.75-.17-1.51-.43-2.23-.71l1.81-2.35c.22-.27.14-.64-.12-.86-.27-.22-.64-.14-.86.12l-1.96,2.57c-.8-.42-1.59-.9-2.33-1.45l3.49-2.02c.28-.16.38-.55.22-.83-.16-.28-.51-.4-.79-.24l-3.87,2.24c-1.01-.95-1.91-2.02-2.63-3.27l-8.05-14.34c-.04-.07-.03-.12,0-.15.01-.05.05-.08.14-.08l11.31-1.04c.34-.06.56-.32.56-.65-.06-.34-.32-.56-.65-.56l-1.85.18c1.47-1.97,3.34-3.65,5.5-4.9s4.56-2.03,6.99-2.32l-1.1,1.56c-.22.27-.14.64.16.84.27.22.64.14.84-.16l6.56-9.28c.05-.08.1-.06.14-.08.05.01.11.03.13.06l8.23,13.77.2.35c.73,1.26,1.2,2.56,1.52,3.92l-4.01,2.32c-.28.16-.38.55-.22.83.16.28.53.35.81.19l3.56-2.06c.13.95.18,1.85.11,2.77h0Z"/>
          <path d="M578.6,474.43l.14.24c.77,1.33,2.42,1.77,3.73,1.06,1.33-.77,1.77-2.42,1.06-3.73l-.14-.24-4.79,2.67Z"/>
          <path d="M595.75,464.63l.14.24c.73,1.35.25,3.02-1.06,3.73-1.35.73-3.02.25-3.73-1.06-.04-.07-.1-.17-.11-.26l4.75-2.65Z"/>
          <path d="M595.03,475.14l-6.91,3.99c-.28.16-.66.06-.83-.22s-.06-.66.22-.83l6.88-3.97c.28-.16.66-.06.83.22.16.28.09.64-.19.81h0Z"/>
        </g>
      </g>
      <g>
        <rect class="cls-9" x="569.06" y="481.32" width="219.68" height="122.05" rx="12" ry="12" transform="translate(-180.21 412.11) rotate(-30)"/>
        <text class="cls-1" transform="translate(566.04 561.69) rotate(-30)"><tspan x="0" y="0">Trade all your Cats with </tspan><tspan x="35.81" y="17.9">a player of your</tspan><tspan x="71.61" y="35.8">choosing</tspan></text>
        <text class="cls-2" transform="translate(647.04 611.66) rotate(-30)"><tspan x="0" y="0">Cats, everywhere!</tspan></text>
      </g>
    </g>
    <g>
      <rect class="cls-6" x="664.6" y="218.11" width="244.09" height="341.73" transform="translate(-73.87 216.85) rotate(-15)"/>
      <text class="cls-3" transform="translate(722.63 256.98) rotate(-15)"><tspan x="0" y="0">Lion</tspan></text>
      <g>
        <rect class="cls-9" x="702.08" y="422.26" width="219.68" height="122.05" rx="12" ry="12" transform="translate(-97.42 226.61) rotate(-15)"/>
        <text class="cls-1" transform="translate(719.51 466.97) rotate(-15)"><tspan x="0" y="0">This Cat may not be </tspan><tspan x="40.28" y="17.9">cat-napped</tspan><tspan x="53.71" y="35.8">+2 Cats</tspan></text>
        <text class="cls-2" transform="translate(720.75 553.36) rotate(-15)"><tspan x="0" y="0">You had better feed it-quick.</tspan></text>
      </g>
      <g>
        <path d="M763.99,340.37c.3-1.52-.01-3.11-.87-4.4-.86-1.29-2.2-2.19-3.73-2.49l-8.11-1.62c-2.05-.41-4.17.31-5.55,1.88-1.38,1.57-1.82,3.76-1.15,5.75.67,1.98,2.35,3.46,4.4,3.87l8.11,1.62h0c1.52.3,3.11-.01,4.4-.87,1.29-.86,2.19-2.2,2.49-3.73h0ZM781.96,335.55h0c-1.03-1.17-1.54-2.7-1.44-4.25.1-1.55.81-3,1.98-4.02l6.21-5.46c1.57-1.38,3.76-1.82,5.75-1.15,1.98.67,3.46,2.35,3.87,4.4.41,2.05-.31,4.17-1.88,5.55l-6.21,5.46h0c-1.17,1.03-2.69,1.54-4.25,1.44-1.55-.1-3-.81-4.02-1.98h0Z"/>
        <path class="cls-8" d="M761.88,296.55c-4.54,1.22-8.83,3.18-12.76,5.74-5.03-2.89-11.11-3.89-16.67-2.4-10.86,2.91-18.7,15.08-15.6,26.66,1.66,6.21,5.23,10.36,9.64,12.75h0c-.6,5.63-.15,11.31,1.31,16.78,2.74,10.21,7.72,17.96,14.02,23.48,3.92,9.88,14.71,15.47,25.22,12.65l1.15-.31c5.35,4.94,13.05,7.12,20.61,5.09s13.14-7.76,15.3-14.71l1.15-.31c10.52-2.82,17.06-13.05,15.52-23.57,2.7-7.94,3.14-17.14.4-27.35-1.5-5.61-4.01-10.71-7.26-15.18,2.62-4.27,3.64-9.65,1.97-15.86-3.1-11.58-15.98-18.2-26.84-15.29-5.55,1.49-10.32,5.4-13.24,10.42-4.69-.25-9.39.19-13.92,1.41h0ZM785.76,385.67c-2.23.6-4.6.43-6.72-.49.96-1.11,1.8-2.33,2.51-3.62.54-.98,1.51-1.66,2.58-1.94s2.25-.19,3.21.39h0c1.26.76,2.6,1.39,3.98,1.88-1.38,1.85-3.34,3.19-5.57,3.78h0ZM764.92,307.87c-17.86,4.78-31.03,25.68-25.8,45.17.91,3.39,2.1,6.37,3.53,8.99,2.73-5.35,7.61-9.3,13.41-10.85l38.2-10.23c6.04-1.62,12.17-.46,17.04,2.69-.07-2.98-.53-6.16-1.44-9.54-5.22-19.49-27.08-31-44.93-26.22h0ZM774.42,365.97c-1.75.47-3.62.1-5.06-.99-1.44-1.1-2.3-2.8-2.31-4.61l-7.96,2.13c-3.28.88-5.85,3.45-6.73,6.73-.88,3.29.06,6.79,2.46,9.19,2.4,2.41,5.91,3.34,9.2,2.46,3.03-.81,5.7-2.09,7.29-4.98,2.14-3.89,5.77-6.52,9.81-7.6s8.49-.62,12.3,1.68c2.82,1.7,5.77,1.48,8.8.67,3.28-.88,5.85-3.45,6.73-6.73.88-3.28-.06-6.79-2.46-9.19s-5.91-3.34-9.2-2.46l-7.96,2.13c.89,1.58,1,3.48.3,5.15-.7,1.67-2.14,2.92-3.89,3.39l-11.32,3.03ZM728.17,323.52c-1.32-4.92,2.29-10.96,7.32-12.31,1.16-.31,2.39-.37,3.59-.21-4.08,4.62-7.31,9.93-9.54,15.68-.55-.82-1.02-1.85-1.37-3.16h0ZM804.56,303.05c-1.32-4.92-7.46-8.35-12.49-7-1.16.31-2.25.87-3.21,1.62,5.85,1.96,11.3,4.94,16.1,8.81.06-.98-.04-2.11-.39-3.42h0Z"/>
        <path class="cls-8" d="M736.58,283.92c3.93-6.14,10.02-10.58,17.06-12.46l2.83-.76c7.33-1.96,14.75-.97,21,2.26.62.32,1.38.19,1.86-.32,9.1-9.67,23.96-12.19,35.96-5.27l2.54,1.46c12,6.93,17.24,21.06,13.42,33.77-.2.67.06,1.39.65,1.77h0c6.14,3.93,10.58,10.02,12.46,17.06l.76,2.83c2.45,9.13.3,18.41-5.03,25.38h0c-.34.44-.41,1.03-.2,1.55,3.43,8.16,3.14,17.77-1.63,26.02l-1.46,2.54c-4.77,8.25-12.94,13.31-21.72,14.42-.55.07-1.03.43-1.24.95-3.38,8.1-10.34,14.6-19.47,17.04l-2.83.76c-9.13,2.45-18.41.3-25.38-5.03h0c-.44-.34-1.03-.41-1.55-.2-8.16,3.43-17.77,3.14-26.02-1.63l-2.54-1.46c-8.26-4.77-13.31-12.94-14.42-21.72-.07-.55-.43-1.03-.95-1.24-8.1-3.37-14.6-10.34-17.04-19.47l-.76-2.83c-1.96-7.33-.97-14.75,2.26-21,.32-.62.19-1.38-.32-1.86-9.67-9.1-12.19-23.96-5.27-35.96l1.46-2.54c6.93-12,21.06-17.24,33.77-13.42.67.2,1.39-.06,1.77-.65h0ZM746.44,290.25c2.36-3.68,6.01-6.35,10.23-7.47l2.83-.76c4.4-1.18,8.84-.59,12.6,1.35h0c2.56,1.32,5.49,1.77,8.33,1.29,2.84-.49,5.45-1.89,7.43-3.99,5.46-5.8,14.39-7.3,21.57-3.15l2.54,1.46c7.19,4.15,10.35,12.63,8.06,20.26-.83,2.76-.74,5.72.26,8.43,1,2.71,2.85,5.01,5.28,6.57,3.68,2.36,6.35,6.01,7.47,10.23l.76,2.83c1.47,5.47.19,11.03-3.02,15.23h0c-1.42,1.86-2.32,4.06-2.62,6.38-.3,2.32.02,4.67.93,6.83,2.15,5.07,1.79,10.86-.97,15.62l-1.46,2.54c-2.75,4.77-7.58,7.98-13.04,8.65-2.32.29-4.52,1.19-6.38,2.61-1.86,1.42-3.31,3.3-4.21,5.45-2.09,5.04-6.41,8.83-11.68,10.23l-2.83.76c-5.27,1.42-10.9.3-15.23-3.02-1.86-1.42-4.06-2.32-6.37-2.62-2.32-.3-4.67.02-6.83.93-5.07,2.15-10.86,1.79-15.62-.97l-2.54-1.46c-4.77-2.75-7.98-7.58-8.65-13.04-.29-2.32-1.19-4.52-2.61-6.38-1.42-1.86-3.3-3.31-5.45-4.21-5.04-2.09-8.83-6.41-10.23-11.68l-.76-2.83c-1.18-4.4-.59-8.84,1.35-12.6h0c1.32-2.57,1.77-5.49,1.29-8.33-.49-2.84-1.89-5.45-3.99-7.43-5.8-5.46-7.3-14.39-3.15-21.57l1.46-2.54c4.15-7.19,12.63-10.35,20.26-8.06,2.76.83,5.72.74,8.43-.26,2.71-1,5.01-2.85,6.57-5.28h0Z"/>
      </g>
    </g>
    <g>
      <rect class="cls-6" x="1011.31" y="218.11" width="244.09" height="341.73" transform="translate(139.29 -280.08) rotate(15)"/>
      <text class="cls-3" transform="translate(1097.14 230.12) rotate(15)"><tspan x="0" y="0">Quantum Cat</tspan></text>
      <g>
        <rect class="cls-9" x="998.24" y="422.26" width="219.68" height="122.05" rx="12" ry="12" transform="translate(162.84 -270.32) rotate(15)"/>
        <text class="cls-2" transform="translate(1004.32 488.5) rotate(15)"><tspan x="0" y="0">Still in a superposition of </tspan><tspan x="47.61" y="14.65">dead and alive</tspan></text>
        <text class="cls-1" transform="translate(1027.56 420.63) rotate(15)"><tspan x="0" y="0">+2 Cats if your total </tspan><tspan x="-4.48" y="17.9">number of Cat Cards is </tspan><tspan x="-8.95" y="35.8">even. -2 Cats otherwise</tspan></text>
      </g>
      <g>
        <path class="cls-8" d="M1122.98,411.47c-8.97-2.4-15.15-16.26-14.53-39.33-4.07.12-7.97.05-11.67-.22-4.15-.46-8.22-1.22-11.9-2.2-8.89-2.38-14.36-6.48-15.81-12.12-2.18-7.81,3.99-17.33,17.22-26.27,3.02-2.06,6.33-4.04,9.88-5.94-2.52-4.11-4.66-8.12-6.35-11.95-.95.03-1.93-.08-2.92-.34-5.21-1.4-8.13-6.45-6.73-11.66.7-2.62,2.33-4.67,4.44-5.87-.17-5.03,1.12-8.93,3.94-11.93,5.79-5.68,16.87-5.34,31.38,1.84,3.29,1.61,6.71,3.52,10.2,5.68,11-20.32,23.3-29.23,32.27-26.83s15.19,16.34,14.53,39.54c3.93-.11,7.71-.03,11.29.23,16.07,1.35,25.91,6.29,28.09,14.1.98,3.61.19,7.69-2.29,11.86,1.33,2.13,1.77,4.8,1.04,7.52-1.4,5.21-6.45,8.13-11.66,6.73-1.02-.27-1.95-.68-2.77-1.21-3.39,2.45-7.22,4.84-11.41,7.13,2.04,3.33,3.84,6.6,5.37,9.79,6.99,14.36,7.57,25.68,1.78,31.36-3.85,4.55-10.64,5.36-19.53,2.98-3.68-.99-7.58-2.36-11.63-4.43-3.24-1.59-6.59-3.45-10.02-5.57-1.37,2.51-2.78,4.89-4.23,7.14,1.65,2.22,2.26,5.16,1.46,8.14-1.4,5.21-6.45,8.13-11.66,6.73-.54-.15-1.06-.33-1.55-.55-6.75,6.46-12.51,6.64-16.24,5.64h0ZM1134.63,401.42c-.97-1.98-1.23-4.33-.59-6.7,1.39-5.2,6.42-8.11,11.61-6.74,1.39-2.25,2.74-4.64,4.07-7.17-5.02-3.42-10.14-7.33-15.21-11.63-6.87,1.29-13.57,2.18-19.94,2.65-.65,19.22,3.28,32.03,9.66,33.74,3.35.9,7.35-1.51,10.4-4.14h0ZM1101.9,322.51c-2.43-3.93-4.5-7.77-6.16-11.44,1.32-1.19,2.32-2.8,2.83-4.7,1.4-5.21-1.52-10.26-6.73-11.66-.28-.07-.56-.14-.83-.19.03-2.68.79-4.63,2.17-6.03,3.6-3.63,12.82-2.48,24.12,3.18,3.16,1.58,6.43,3.43,9.77,5.53-2.55,5.35-5,11.34-7.3,17.99-6.34,2.24-12.34,4.69-17.88,7.33h0ZM1196.74,338.06c-.52-1.67-.58-3.53-.08-5.41,1.4-5.21,6.45-8.13,11.66-6.73.2.05.39.11.58.17,1.21-2.3,1.52-4.4.98-6-1.3-4.95-9.86-8.56-22.48-9.31-3.4-.28-7.04-.35-10.85-.24-.46,5.82-1.32,12.13-2.62,18.9,4.38,5.12,8.34,10.3,11.8,15.4,4.07-2.2,7.77-4.48,11-6.79h0ZM1128.33,363.7c-4.59.77-9.08,1.33-13.39,1.69.34-4.24.89-8.74,1.66-13.45,1.91,2.08,3.87,4.13,5.89,6.17,1.93,1.92,3.88,3.78,5.84,5.59h0ZM1108.78,365.76c.45-6.01,1.33-12.56,2.7-19.61-4.3-5.04-8.22-10.12-11.63-15.12-3.65,1.89-7.04,3.84-10.1,5.81-10.43,7.06-16.02,14.43-14.72,19.38,1.3,4.95,9.86,8.56,22.48,9.31,3.53.29,7.31.36,11.28.22h0ZM1127.03,353.41c-3.14-3.1-6.13-6.26-8.95-9.44.78-3.76,1.7-7.64,2.76-11.6,1.08-4.05,2.25-7.94,3.48-11.65,4.04-1.37,8.22-2.64,12.48-3.78,4.17-1.12,8.32-2.1,12.41-2.94,2.97,2.63,5.92,5.41,8.82,8.31,3.04,2.98,5.93,6.01,8.67,9.05-.82,4.05-1.8,8.23-2.95,12.52-1.09,4.08-2.29,8.06-3.57,11.92-3.92,1.31-7.96,2.52-12.08,3.6-3.94,1.05-7.85,1.99-11.72,2.8-3.15-2.77-6.27-5.7-9.35-8.77h0ZM1115.1,330.5c.66-2.47,1.34-4.86,2.05-7.19-4.02,1.54-7.87,3.18-11.52,4.88,2.29,3.31,4.82,6.66,7.55,10.01.58-2.51,1.23-5.08,1.93-7.7h0ZM1135.3,310.28c-2.75.77-5.46,1.58-8.12,2.42,1.64-4.3,3.37-8.32,5.14-12.04,3.43,2.37,6.91,4.98,10.38,7.8-2.46.56-4.92,1.17-7.4,1.83h0ZM1151.2,306.7c-5.26-4.5-10.58-8.57-15.8-12.13,8.98-16.65,18.66-25.59,24.97-23.9s10.28,14.43,9.67,33.54c-6.04.45-12.36,1.29-18.84,2.49h0ZM1157.63,312.44c4.12-.66,8.14-1.16,12.03-1.49-.31,3.83-.79,7.86-1.45,12.07-1.8-1.93-3.64-3.84-5.54-5.72-1.66-1.66-3.34-3.27-5.04-4.85h0ZM1170.28,345.29c.69-2.58,1.32-5.11,1.9-7.58,2.79,3.39,5.36,6.79,7.68,10.14-3.71,1.78-7.65,3.49-11.78,5.09.77-2.51,1.5-5.06,2.2-7.65h0ZM1149.69,365.72c2.63-.72,5.22-1.48,7.77-2.28-1.53,4.02-3.15,7.87-4.85,11.5-3.3-2.28-6.63-4.78-9.97-7.48,2.34-.54,4.69-1.12,7.05-1.75h0ZM1165.52,360.73c-2.22,6.34-4.69,12.34-7.37,17.87,3.29,2.06,6.51,3.88,9.63,5.44,11.3,5.66,20.52,6.81,24.12,3.18,3.6-3.63,2.45-12.81-3.06-24.15-1.52-3.2-3.34-6.49-5.43-9.85-5.52,2.7-11.53,5.22-17.88,7.51h0ZM1202.8,334.28c.49-1.84,2.05-2.74,3.89-2.24s2.74,2.05,2.24,3.89-2.05,2.74-3.89,2.24-2.74-2.05-2.24-3.89ZM1090.2,300.83c-1.84-.49-3.39.4-3.89,2.24s.41,3.39,2.24,3.89,3.39-.4,3.89-2.24-.4-3.39-2.24-3.89ZM1140.17,396.35c.49-1.84,2.05-2.74,3.89-2.24s2.74,2.05,2.24,3.89-2.05,2.74-3.89,2.24-2.74-2.05-2.24-3.89Z"/>
        <g>
          <path d="M1156.89,345.97l-.86-.23c.59-1.02,1.1-2.13,1.42-3.29l3.44-13.62c.11-.4,0-.79-.28-1.07-.28-.29-.67-.43-1.05-.35l-6.68,1.1c-1.87-1.68-4.18-2.9-6.67-3.57s-5.12-.73-7.6-.25l-5.16-4.3c-.33-.23-.73-.34-1.12-.19-.39.11-.68.42-.78.79l-3.8,13.53c-.32,1.2-.46,2.37-.42,3.56l-.96-.26c-.27-.07-.56.1-.63.37-.07.27.1.56.37.63l1.3.35c.08.91.26,1.82.56,2.68l-2.07.27c-.29.03-.47.3-.44.59.01.22.19.37.39.42.07.02.13.04.21.02l2.25-.29c.31.72.64,1.46,1.07,2.14l-2.28,1.31c-.25.15-.33.45-.19.7.07.13.2.2.33.23s.27.04.4-.03l2.32-1.34c2.04,2.9,5.18,5.17,9.03,6.2s7.64.62,10.88-.83l1.31,2.28c.07.13.2.2.33.23s.27.04.4-.03c.25-.15.33-.45.19-.7l-1.36-2.25c.71-.38,1.36-.81,1.99-1.32l1.77,1.37c.06.05.12.07.19.09.2.05.39,0,.55-.17.17-.24.14-.53-.09-.74l-1.6-1.21c.7-.63,1.32-1.32,1.87-2.06l1.2.32c.27.07.56-.1.63-.37s-.09-.59-.36-.67h0ZM1152.72,348.1l-2.25-1.71c-.24-.17-.53-.14-.74.09-.17.24-.14.53.09.74l2.04,1.58c-.53.39-1.09.74-1.67,1.05l-1.12-1.94c-.15-.25-.45-.33-.7-.19-.25.15-.33.45-.19.7l1.1,1.9c-3,1.34-6.54,1.67-10.07.72s-6.49-3.06-8.38-5.7l1.86-1.07c.25-.15.33-.45.19-.7-.15-.25-.45-.33-.7-.19l-1.93,1.09c-.35-.56-.65-1.17-.91-1.78l2.51-.33c.29-.03.47-.3.44-.59-.03-.29-.3-.47-.59-.44l-2.74.37c-.23-.74-.42-1.5-.53-2.28l3.33.89c.27.07.56-.1.63-.37.07-.27-.07-.55-.33-.62l-3.69-.99c-.04-1.19.06-2.37.39-3.57l3.8-13.53c.02-.07.06-.09.09-.08.04-.02.08-.02.13.04l7.46,6.21c.24.17.53.14.73-.05.17-.24.14-.53-.05-.73l-1.23-1.01c2.08-.3,4.22-.19,6.28.36s3.97,1.53,5.62,2.83l-1.61.28c-.29.03-.47.3-.41.6.03.29.3.47.6.41l9.57-1.64c.08-.02.1.03.13.04.02.04.05.08.04.12l-3.35,13.29-.09.33c-.32,1.2-.82,2.27-1.45,3.28l-3.82-1.02c-.27-.07-.56.1-.63.37-.07.27.11.53.37.6l3.39.91c-.5.65-1.01,1.23-1.61,1.74h0Z"/>
          <path d="M1134.93,334.28l-.06.23c-.34,1.26.39,2.53,1.61,2.89,1.26.34,2.53-.39,2.89-1.61l.06-.23-4.51-1.28Z"/>
          <path d="M1151.21,338.71l-.06.23c-.37,1.26-1.67,1.98-2.89,1.61-1.26-.37-1.98-1.67-1.61-2.89.02-.07.04-.17.1-.22l4.47,1.27Z"/>
          <path d="M1144.42,344.63l-6.59-1.76c-.27-.07-.44-.37-.37-.63s.37-.44.63-.37l6.55,1.76c.27.07.44.37.37.63-.07.27-.33.45-.6.37h0Z"/>
        </g>
      </g>
    </g>
    <g>
      <rect class="cls-6" x="837.95" y="192.34" width="244.09" height="341.73"/>
      <text class="cls-3" transform="translate(842.41 219.14)"><tspan x="0" y="0">Schrödinger’s Cat</tspan></text>
      <g>
        <path d="M938.11,286.3c-1.03-1.03-2.58-1.03-3.62,0l-4.83,4.83-4.83-4.83c-1.03-1.03-2.58-1.03-3.62,0-1.03,1.03-1.03,2.58,0,3.62l4.83,4.83-4.83,4.83c-1.03,1.03-1.03,2.58,0,3.62.52.52,1.21.69,1.9.69s1.38-.17,1.9-.69l4.83-4.83,4.83,4.83c.52.52,1.21.69,1.9.69s1.38-.17,1.9-.69c1.03-1.03,1.03-2.58,0-3.62l-4.83-4.83,4.83-4.83c.69-1.04.69-2.76-.34-3.62h0Z"/>
        <path d="M1039.11,322.84h-4.48c1.55-5.69,2.58-11.72,2.58-17.75l-1.03-70.32c0-2.07-1.03-3.79-2.76-4.83-1.72-1.03-3.79-1.21-5.52-.35l-30.85,13.96c-11.2-5.69-23.96-8.62-36.89-8.62s-25.68,3.1-37.06,8.62l-30.51-14.13c-1.9-.69-3.96-.69-5.69.52-1.72,1.03-2.76,2.93-2.76,4.83l-.86,70.32c0,6.21.86,12.07,2.58,17.75h-5c-1.38,0-2.58,1.21-2.58,2.58,0,1.38,1.21,2.59,2.58,2.59h6.72c1.55,4.31,3.62,8.45,6.21,12.24l-9.65,3.96c-1.38.52-1.9,2.07-1.38,3.45.34,1.03,1.38,1.55,2.41,1.55.35,0,.69,0,1.03-.17l10.51-4.31c2.41,3.1,5,6.21,7.93,8.96l-9.31,9.31c-1.03,1.03-1.03,2.58,0,3.62.52.52,1.21.69,1.9.69s1.38-.17,1.9-.69l9.48-9.48c13.62,11.38,31.71,18.27,51.71,18.27s37.75-6.89,51.54-18.1l9.31,9.31c.52.52,1.21.69,1.9.69s1.38-.17,1.9-.69c1.03-1.03,1.03-2.58,0-3.62l-9.48-9.13c2.93-2.76,5.52-5.69,7.93-8.96l10.34,4.31c.35.17.69.17,1.03.17,1.03,0,1.9-.52,2.41-1.55.52-1.38,0-2.76-1.38-3.45l-9.31-3.79c2.58-3.96,4.65-8.1,6.38-12.41h6.21c1.38,0,2.58-1.21,2.58-2.58s-1.21-2.76-2.59-2.76h0ZM1021.71,338.53l-13.1-5.34c-1.38-.52-2.76,0-3.45,1.38-.52,1.38,0,2.76,1.38,3.45l11.89,5c-2.07,2.58-4.31,5-6.72,7.24l-7.93-7.93c-1.03-1.03-2.58-1.03-3.62,0-1.03,1.03-1.03,2.58,0,3.62l7.76,7.76c-12.76,10.34-29.47,16.55-47.74,16.55s-35.33-6.38-47.92-16.72l7.58-7.58c1.03-1.03,1.03-2.58,0-3.62-1.03-1.03-2.58-1.03-3.62,0l-7.93,7.76c-2.41-2.24-4.65-4.83-6.72-7.41l11.72-4.83c1.38-.52,1.9-2.07,1.38-3.45-.52-1.38-2.07-1.9-3.45-1.38l-12.76,5.34c-2.07-3.28-3.96-6.72-5.52-10.34h17.24c1.38,0,2.58-1.21,2.58-2.58,0-1.38-1.03-2.59-2.41-2.59h-19.13c-1.72-5.69-2.76-11.55-2.76-17.75l.86-70.32c0-.35.17-.52.35-.52.17-.17.35-.17.69,0l44.12,20.34c1.38.52,2.76,0,3.45-1.21.52-1.38,0-2.76-1.21-3.45l-7.24-3.28c9.65-4.14,20.17-6.38,30.85-6.38s21.2,2.24,30.85,6.38l-7.41,3.45c-1.38.52-1.9,2.07-1.21,3.45.52,1.38,2.07,1.9,3.45,1.21l44.12-20.34c.35-.17.52,0,.69,0,.17.17.35.35.35.52l1.03,68.6v1.72c0,6.21-1.03,12.07-2.76,17.75h-19.82c-1.38,0-2.58,1.21-2.58,2.59,0,1.38,1.21,2.41,2.58,2.41h17.58c-1.55,3.79-3.27,7.24-5.51,10.51h0Z"/>
        <path d="M1002.23,295.09v1.21c-.17,6.55-5.52,11.72-11.89,11.55-6.55-.17-11.72-5.52-11.55-11.89,0-.35,0-.86.17-1.21l23.27.35Z"/>
        <path d="M977.06,332.5h-34.13c-1.38,0-2.58-1.21-2.58-2.58s1.21-2.58,2.58-2.58h33.96c1.38,0,2.58,1.21,2.58,2.58,0,1.38-1.03,2.58-2.41,2.58h0Z"/>
      </g>
      <g>
        <rect class="cls-9" x="850.16" y="399.82" width="219.68" height="122.05" rx="12" ry="12"/>
        <text class="cls-1" transform="translate(888.39 421.17)"><tspan x="0" y="0">The Game is over</tspan><tspan x="40.28" y="17.9">+3 Cats</tspan></text>
        <text class="cls-2" transform="translate(908.73 504.94)"><tspan x="0" y="0">You found him!</tspan></text>
      </g>
    </g>
  </g>
  <text class="cls-7" transform="translate(318.06 145.88)"><tspan x="0" y="0">Schrödinger’s Cat</tspan></text>
  <g>
    <g>
      <path d="M688.37,920.1c-1.02,3.41-.26,5.06-.59,8.1-.88,7.97-10,13.35-17.3,9.97-2.12-.98-6.6-4.5-8.35-6.2-4.79-4.63-7.56-10.5-6.77-17.18.73-5.45,4.89-9.76,9.45-12.45,3.61-2.13,10.44-4.34,14.82-4.18,8.5.31,14.12,9.67,10.63,17.62-.66,1.5-1.45,2.7-1.89,4.33h0ZM658.93,915.55c-.52,4.55,1.19,8.43,3.97,11.92,1.59,1.99,6.51,6.14,9.02,7.34,5.15,2.46,11.78-1.52,12.35-7.15.11-1.15-.07-2.31-.1-3.45-.05-1.72.28-3.36.7-5.02.69-2.18,1.57-3.36,2.32-5.27,2.13-5.38-1.89-11.96-7.65-12.1-1.01-.02-2.03.14-3.01.31-6.88,1.16-14.97,4.42-17.2,11.72-.13.44-.39,1.24-.39,1.71h0Z"/>
      <path d="M653.18,936.72c-1.37,6.49-8.24,10.73-14.66,9.68-3.78-.62-7.03-3.59-6.34-7.66.06-2.74,2.23-5.39,4.24-7.03,2.57-2.11,6.07-3.19,9.39-2.83,4.3.46,7.89,3.24,7.38,7.85h0ZM635.72,939.02c-1.05,6.15,12.3,4.95,13.95-2.67.22-2.55-2.07-3.72-4.31-3.92-3.61-.33-9.48,2.62-9.63,6.59h0Z"/>
      <path d="M662.99,891.06c-1.89,12.4-20.67,4.6-19.17-7.37.11-1.55.99-3.28,2.15-4.31,6.85-6.04,17.6,2.88,17.02,11.68h0ZM647.55,883.95c-1.06,7.75,10.33,13.52,11.89,6.88.49-7.65-10.19-13.42-11.89-6.88Z"/>
      <path d="M645.59,900.01c-.63,5.5-6.49,8.09-11.47,7.72-5.65-.43-11.82-5-11.29-11.18v-.08c.84-5.72,7.45-8.11,12.54-7.34,5.13.78,11.1,5.17,10.22,10.89h0ZM626.46,896.83c-.52,4.05,4.12,6.83,7.63,7.26,3,.37,7.29-.96,7.91-4.36.58-5.98-9.29-9.41-13.95-5.51-.8.67-1.44,1.57-1.6,2.61Z"/>
      <path d="M640.91,921.78c-1.19,8.89-15.74,9.72-21.02,2.14-1.28-1.83-2.01-4.07-1.6-6.3.16-2.03,1.64-3.91,3.25-5.05,7.8-5.5,20.93.57,19.37,9.22h0ZM621.8,918.56c-.43,7.61,14.64,9.66,15.64,2.47.27-8.01-15.01-9.46-15.64-2.47Z"/>
    </g>
    <g>
      <path d="M607.18,973.35c.65,3.5,2.08,4.62,3.16,7.48,2.85,7.5-2.81,16.44-10.85,16.76-2.34.09-7.92-1-10.26-1.71-6.38-1.94-11.52-5.9-13.85-12.21-1.83-5.18-.1-10.91,2.73-15.39,2.24-3.54,7.31-8.63,11.28-10.48,7.7-3.6,16.97,2.16,17.49,10.84.1,1.64-.06,3.07.3,4.71h0ZM578.9,982.72c1.61,4.29,4.9,6.96,8.97,8.8,2.32,1.05,8.59,2.49,11.37,2.42,5.71-.16,9.79-6.72,7.73-11.99-.42-1.07-1.11-2.02-1.66-3.03-.83-1.51-1.28-3.11-1.67-4.78-.38-2.26-.14-3.71-.34-5.75-.55-5.76-7.14-9.79-12.33-7.29-.91.44-1.74,1.05-2.54,1.65-5.59,4.17-11.31,10.76-9.97,18.28.08.45.22,1.28.43,1.7h0Z"/>
      <path d="M583.44,1004.18c1.74,6.4-2.44,13.3-8.64,15.3-3.65,1.18-7.89.01-9.14-3.93-1.2-2.46-.47-5.81.57-8.19,1.33-3.05,3.95-5.6,7.06-6.8,4.03-1.55,8.5-.71,10.14,3.62h0ZM568.94,1014.19c1.87,5.96,13.21-1.2,11.19-8.74-.97-2.37-3.53-2.37-5.62-1.52-3.36,1.35-7.24,6.65-5.57,10.26h0Z"/>
      <path d="M571.35,959.08c3.97,11.9-16.3,13.52-20.42,2.18-.61-1.43-.62-3.37-.05-4.82,3.34-8.49,16.98-5.46,20.47,2.64h0ZM554.36,959.78c2.58,7.38,15.35,7.32,13.72.7-3.06-7.03-15.19-7.3-13.72-.7Z"/>
      <path d="M559.94,974.97c1.95,5.18-2.09,10.16-6.69,12.1-5.22,2.19-12.8.93-15.15-4.8l-.02-.07c-1.87-5.47,2.92-10.61,7.81-12.25,4.92-1.65,12.23-.46,14.06,5.03h0ZM541.47,980.86c1.39,3.84,6.78,4.2,10.1,2.98,2.84-1.04,6.05-4.18,5.06-7.49-2.21-5.59-12.56-4.14-14.93,1.45-.41.96-.57,2.05-.23,3.05Z"/>
      <path d="M565.71,996.47c2.99,8.45-9.58,15.82-17.73,11.49-1.97-1.05-3.64-2.71-4.3-4.88-.78-1.88-.33-4.23.59-5.98,4.43-8.45,18.89-9.04,21.44-.63h0ZM547.22,1002.33c3.09,6.97,17.44,1.92,15.04-4.94-3.41-7.25-17.67-1.58-15.04,4.94Z"/>
    </g>
    <g>
      <path d="M520.2,912.26c-1.02,3.41-.26,5.06-.59,8.1-.88,7.97-10,13.35-17.3,9.97-2.12-.98-6.6-4.5-8.35-6.2-4.79-4.63-7.56-10.5-6.77-17.18.73-5.45,4.89-9.76,9.45-12.45,3.61-2.13,10.44-4.34,14.82-4.18,8.5.31,14.12,9.67,10.63,17.62-.66,1.5-1.45,2.7-1.89,4.33h0ZM490.77,907.72c-.52,4.55,1.19,8.43,3.97,11.92,1.59,1.99,6.51,6.14,9.02,7.34,5.15,2.46,11.78-1.52,12.35-7.15.11-1.15-.07-2.31-.1-3.45-.05-1.72.28-3.36.7-5.02.69-2.18,1.57-3.36,2.32-5.27,2.13-5.38-1.89-11.96-7.65-12.1-1.01-.02-2.03.14-3.01.31-6.88,1.16-14.97,4.42-17.2,11.72-.13.44-.39,1.24-.39,1.71h0Z"/>
      <path d="M485.02,928.89c-1.37,6.49-8.24,10.73-14.66,9.68-3.78-.62-7.03-3.59-6.34-7.66.06-2.74,2.23-5.39,4.24-7.03,2.57-2.11,6.07-3.19,9.39-2.83,4.3.46,7.89,3.24,7.38,7.85h0ZM467.55,931.18c-1.05,6.15,12.3,4.95,13.95-2.67.22-2.55-2.07-3.72-4.31-3.92-3.61-.33-9.48,2.62-9.63,6.59h0Z"/>
      <path d="M494.83,883.23c-1.89,12.4-20.67,4.6-19.17-7.37.11-1.55.99-3.28,2.15-4.31,6.85-6.04,17.6,2.88,17.02,11.68h0ZM479.38,876.11c-1.06,7.75,10.33,13.52,11.89,6.88.49-7.65-10.19-13.42-11.89-6.88Z"/>
      <path d="M477.43,892.17c-.63,5.5-6.49,8.09-11.47,7.72-5.65-.43-11.82-5-11.29-11.18v-.08c.84-5.72,7.45-8.11,12.54-7.34,5.13.78,11.1,5.17,10.22,10.89h0ZM458.3,889c-.52,4.05,4.12,6.83,7.63,7.26,3,.37,7.29-.96,7.91-4.36.58-5.98-9.29-9.41-13.95-5.51-.8.67-1.44,1.57-1.6,2.61Z"/>
      <path d="M472.75,913.94c-1.19,8.89-15.74,9.72-21.02,2.14-1.28-1.83-2.01-4.07-1.6-6.3.16-2.03,1.64-3.91,3.25-5.05,7.8-5.5,20.93.57,19.37,9.22h0ZM453.63,910.73c-.43,7.61,14.64,9.66,15.64,2.47.27-8.01-15.01-9.46-15.64-2.47Z"/>
    </g>
    <g>
      <path d="M379.95,972.9c-1.02,3.41-.26,5.06-.59,8.1-.88,7.97-10,13.35-17.3,9.97-2.12-.98-6.6-4.5-8.35-6.2-4.79-4.63-7.56-10.5-6.77-17.18.73-5.45,4.89-9.76,9.45-12.45,3.61-2.13,10.44-4.34,14.82-4.18,8.5.31,14.12,9.67,10.63,17.62-.66,1.5-1.45,2.7-1.89,4.33h0ZM350.51,968.35c-.52,4.55,1.19,8.43,3.97,11.92,1.59,1.99,6.51,6.14,9.02,7.34,5.15,2.46,11.78-1.52,12.35-7.15.11-1.15-.07-2.31-.1-3.45-.05-1.72.28-3.36.7-5.02.69-2.18,1.57-3.36,2.32-5.27,2.13-5.38-1.89-11.96-7.65-12.1-1.01-.02-2.03.14-3.01.31-6.88,1.16-14.97,4.42-17.2,11.72-.13.44-.39,1.24-.39,1.71h0Z"/>
      <path d="M344.76,989.52c-1.37,6.49-8.24,10.73-14.66,9.68-3.78-.62-7.03-3.59-6.34-7.66.06-2.74,2.23-5.39,4.24-7.03,2.57-2.11,6.07-3.19,9.39-2.83,4.3.46,7.89,3.24,7.38,7.85h0ZM327.29,991.81c-1.05,6.15,12.3,4.95,13.95-2.67.22-2.55-2.07-3.72-4.31-3.92-3.61-.33-9.48,2.62-9.63,6.59h0Z"/>
      <path d="M354.57,943.86c-1.89,12.4-20.67,4.6-19.17-7.37.11-1.55.99-3.28,2.15-4.31,6.85-6.04,17.6,2.88,17.02,11.68h0ZM339.13,936.74c-1.06,7.75,10.33,13.52,11.89,6.88.49-7.65-10.19-13.42-11.89-6.88Z"/>
      <path d="M337.17,952.8c-.63,5.5-6.49,8.09-11.47,7.72-5.65-.43-11.82-5-11.29-11.18v-.08c.84-5.72,7.45-8.11,12.54-7.34,5.13.78,11.1,5.17,10.22,10.89h0ZM318.04,949.63c-.52,4.05,4.12,6.83,7.63,7.26,3,.37,7.29-.96,7.91-4.36.58-5.98-9.29-9.41-13.95-5.51-.8.67-1.44,1.57-1.6,2.61Z"/>
      <path d="M332.49,974.57c-1.19,8.89-15.74,9.72-21.02,2.14-1.28-1.83-2.01-4.07-1.6-6.3.16-2.03,1.64-3.91,3.25-5.05,7.8-5.5,20.93.57,19.37,9.22h0ZM313.37,971.36c-.43,7.61,14.64,9.66,15.64,2.47.27-8.01-15.01-9.46-15.64-2.47Z"/>
    </g>
    <g>
      <path d="M268.71,894.08c-1.7,3.13-1.3,4.9-2.25,7.8-2.51,7.62-12.54,11-18.98,6.19-1.87-1.4-5.53-5.77-6.89-7.79-3.73-5.52-5.23-11.84-3.08-18.21,1.84-5.18,6.79-8.54,11.81-10.23,3.97-1.34,11.11-2.1,15.36-1.04,8.25,2.06,11.82,12.37,6.76,19.43-.95,1.33-1.98,2.35-2.74,3.85h0ZM240.84,883.56c-1.45,4.35-.57,8.49,1.42,12.48,1.14,2.28,5.11,7.35,7.31,9.04,4.54,3.47,11.84.94,13.56-4.45.35-1.1.41-2.27.61-3.4.31-1.7.97-3.23,1.72-4.76,1.13-1.99,2.23-2.97,3.36-4.68,3.2-4.82.62-12.1-4.99-13.42-.98-.23-2.01-.28-3.01-.32-6.97-.28-15.56,1.23-19.25,7.92-.22.4-.64,1.14-.73,1.59h0Z"/>
      <path d="M230.85,903.08c-2.68,6.07-10.27,8.8-16.34,6.45-3.57-1.38-6.14-4.96-4.63-8.8.62-2.67,3.29-4.81,5.6-6.01,2.95-1.53,6.6-1.86,9.77-.84,4.11,1.34,7.05,4.8,5.6,9.2h0ZM213.29,901.73c-2.3,5.8,11.01,7.38,14.2.26.74-2.45-1.26-4.06-3.41-4.72-3.46-1.07-9.81.61-10.79,4.46h0Z"/>
      <path d="M249.87,860.43c-4.41,11.74-21.18.24-17.24-11.17.43-1.5,1.65-3.01,2.99-3.77,7.94-4.49,16.63,6.45,14.24,14.94h0ZM236.22,850.28c-2.64,7.36,7.31,15.36,10.22,9.18,2.05-7.39-7.2-15.24-10.22-9.18Z"/>
      <path d="M231,865.59c-1.75,5.25-8.02,6.58-12.82,5.18-5.44-1.59-10.53-7.33-8.74-13.27l.03-.07c1.99-5.43,8.95-6.4,13.78-4.6,4.86,1.82,9.79,7.35,7.76,12.76h0ZM212.93,858.54c-1.34,3.86,2.62,7.53,5.97,8.68,2.86.98,7.34.56,8.64-2.63,1.8-5.74-7.15-11.12-12.51-8.27-.92.49-1.74,1.24-2.1,2.23Z"/>
      <path d="M221.93,885.93c-3,8.45-17.4,6.26-21.01-2.25-.87-2.06-1.12-4.4-.26-6.5.58-1.95,2.41-3.49,4.22-4.27,8.76-3.78,20.37,4.87,17.05,13.02h0ZM203.88,878.84c-1.99,7.36,12.33,12.47,14.8,5.64,1.91-7.78-12.73-12.35-14.8-5.64Z"/>
    </g>
    <g>
      <path d="M134.58,889.06c-3.06,1.82-3.62,3.55-5.92,5.56-6.05,5.27-16.4,3.06-19.48-4.37-.9-2.16-1.81-7.78-1.95-10.22-.39-6.66,1.55-12.85,6.65-17.22,4.23-3.51,10.2-3.87,15.38-2.77,4.1.87,10.63,3.87,13.74,6.95,6.04,5.98,3.85,16.67-4.11,20.16-1.5.66-2.9,1.01-4.32,1.91h0ZM115.99,865.79c-3.47,3-4.83,7.01-5.15,11.46-.18,2.54.64,8.93,1.67,11.51,2.13,5.3,9.69,6.86,13.93,3.1.86-.77,1.51-1.74,2.26-2.61,1.13-1.3,2.48-2.28,3.91-3.22,1.99-1.14,3.43-1.42,5.28-2.31,5.21-2.51,6.71-10.08,2.57-14.09-.72-.7-1.59-1.27-2.43-1.81-5.85-3.8-14.01-6.89-20.6-3.02-.39.24-1.13.65-1.44.99h0Z"/>
      <path d="M97.43,877.47c-5.41,3.85-13.33,2.32-17.34-2.8-2.37-3.02-2.75-7.4.52-9.93,1.89-1.98,5.29-2.46,7.88-2.3,3.32.19,6.63,1.77,8.83,4.27,2.85,3.25,3.61,7.73.12,10.77h0ZM83.02,867.33c-4.94,3.81,5.7,11.97,12.07,7.48,1.89-1.73,1-4.13-.52-5.8-2.43-2.69-8.75-4.49-11.55-1.67h0Z"/>
      <path d="M135.56,850.51c-9.79,7.85-18.33-10.61-9.12-18.4,1.13-1.07,2.95-1.75,4.5-1.71,9.13.19,11,14.03,4.62,20.12h0ZM129.01,834.82c-6.03,4.98-1.55,16.94,4.1,13.12,5.54-5.3,1.59-16.78-4.1-13.12Z"/>
      <path d="M116.7,845.31c-4.19,3.62-10.26,1.56-13.67-2.09-3.87-4.14-5.31-11.68-.74-15.88l.06-.05c4.49-3.65,10.96-.93,14.19,3.08,3.25,4.05,4.66,11.32.15,14.93h0ZM104.77,830.03c-3.13,2.63-1.59,7.81.7,10.51,1.96,2.3,6.02,4.23,8.77,2.15,4.48-4.01-.47-13.21-6.53-13.5-1.04-.05-2.12.18-2.95.84Z"/>
      <path d="M98.52,858.17c-6.9,5.74-18.16-3.5-16.92-12.66.3-2.21,1.28-4.35,3.09-5.72,1.5-1.38,3.85-1.77,5.81-1.52,9.46,1.23,15.02,14.59,8.01,19.9h0ZM86.62,842.86c-5.47,5.31,4.23,17.02,9.84,12.4,5.62-5.71-4.64-17.12-9.84-12.4Z"/>
    </g>
    <g>
      <path d="M83.52,769.22c-3.42-.97-5.07-.19-8.1-.48-7.98-.78-13.49-9.82-10.2-17.16.95-2.13,4.41-6.66,6.09-8.43,4.57-4.86,10.4-7.7,17.09-6.99,5.46.66,9.82,4.75,12.57,9.28,2.18,3.58,4.48,10.38,4.38,14.76-.2,8.5-9.48,14.25-17.48,10.86-1.51-.64-2.72-1.42-4.35-1.83h0ZM87.67,739.73c-4.56-.46-8.41,1.3-11.87,4.13-1.97,1.61-6.05,6.59-7.21,9.12-2.39,5.19,1.67,11.76,7.31,12.25,1.15.1,2.31-.1,3.45-.15,1.72-.07,3.36.24,5.02.63,2.19.66,3.38,1.52,5.3,2.25,5.41,2.06,11.94-2.05,12-7.81.01-1.01-.17-2.03-.35-3.01-1.26-6.86-4.62-14.91-11.95-17.05-.44-.12-1.25-.37-1.71-.36h0Z"/>
      <path d="M66.43,734.26c-6.51-1.28-10.84-8.09-9.87-14.53.57-3.79,3.49-7.08,7.57-6.44,2.74.02,5.42,2.16,7.09,4.15,2.14,2.55,3.27,6.03,2.96,9.35-.4,4.3-3.14,7.93-7.75,7.48h0ZM63.9,716.83c-6.17-.97-4.79,12.37,2.86,13.91,2.55.19,3.69-2.12,3.86-4.36.28-3.61-2.75-9.44-6.72-9.55h0Z"/>
      <path d="M112.21,743.46c-12.42-1.72-4.88-20.61,7.11-19.27,1.56.09,3.3.95,4.34,2.09,6.13,6.77-2.64,17.64-11.45,17.17h0ZM119.12,727.92c-7.76-.96-13.38,10.5-6.72,11.99,7.66.38,13.29-10.37,6.72-11.99Z"/>
      <path d="M103.04,726.18c-5.51-.56-8.18-6.38-7.87-11.37.35-5.65,4.85-11.88,11.03-11.44h.08c5.73.76,8.21,7.34,7.51,12.44-.71,5.14-5.02,11.16-10.75,10.37h0ZM105.96,707.01c-4.06-.46-6.77,4.21-7.15,7.73-.33,3.01,1.06,7.28,4.46,7.85,5.99.5,9.28-9.42,5.33-14.02-.68-.79-1.59-1.42-2.63-1.57Z"/>
      <path d="M81.21,721.8c-8.9-1.07-9.93-15.6-2.42-20.99,1.82-1.3,4.04-2.06,6.28-1.68,2.03.14,3.93,1.58,5.09,3.18,5.61,7.72-.29,20.94-8.96,19.49h0ZM84.17,702.64c-7.62-.33-9.47,14.77-2.26,15.67,8.01.16,9.26-15.13,2.26-15.67Z"/>
    </g>
    <g>
      <path d="M133.41,671.71c-3.52-.5-5.05.5-8.09.61-8.02.31-14.69-7.91-12.42-15.63.66-2.24,3.47-7.19,4.89-9.18,3.87-5.43,9.27-9.03,15.99-9.24,5.5-.08,10.37,3.38,13.71,7.5,2.64,3.25,5.84,9.68,6.33,14.03.95,8.45-7.47,15.4-15.85,13.12-1.58-.43-2.89-1.04-4.56-1.22h0ZM133.54,641.92c-4.58.16-8.16,2.43-11.2,5.69-1.74,1.86-5.1,7.35-5.92,10.01-1.67,5.46,3.25,11.42,8.9,11.15,1.15-.06,2.27-.41,3.4-.61,1.7-.3,3.36-.22,5.06-.05,2.26.36,3.56,1.05,5.56,1.52,5.64,1.31,11.55-3.64,10.84-9.36-.13-1-.44-1.98-.75-2.94-2.17-6.63-6.59-14.15-14.14-15.28-.45-.06-1.29-.2-1.75-.13h0Z"/>
      <path d="M111.76,639.37c-6.63-.39-11.83-6.56-11.75-13.06.05-3.83,2.51-7.49,6.63-7.41,2.71-.35,5.66,1.4,7.58,3.15,2.47,2.23,4.05,5.53,4.19,8.86.18,4.32-2.04,8.28-6.67,8.46h0ZM106.89,622.44c-6.24-.13-3.07,12.9,4.71,13.4,2.55-.16,3.37-2.59,3.24-4.85-.21-3.62-3.99-8.98-7.95-8.55h0Z"/>
      <path d="M158.36,642.31c-12.54-.03-7.62-19.76,4.45-20.05,1.55-.12,3.39.49,4.58,1.49,6.98,5.88-.24,17.83-9.03,18.56h0ZM163.11,625.98c-7.82.1-11.84,12.21-5.04,12.78,7.64-.65,11.77-12.07,5.04-12.78Z"/>
      <path d="M146.94,626.42c-5.53.19-8.97-5.22-9.33-10.2-.41-5.65,3.2-12.43,9.39-12.83h.08c5.78-.03,9.12,6.16,9.12,11.31,0,5.19-3.47,11.74-9.25,11.72h0ZM147.24,607.04c-4.08.09-6.14,5.09-6.05,8.63.08,3.02,2.03,7.07,5.48,7.18,6-.31,7.93-10.58,3.38-14.61-.78-.69-1.76-1.2-2.82-1.2Z"/>
      <path d="M124.72,625.03c-8.97.14-11.94-14.12-5.23-20.47,1.62-1.53,3.73-2.59,6-2.52,2.03-.14,4.11,1.04,5.48,2.46,6.6,6.89,2.54,20.79-6.25,20.52h0ZM125.06,605.64c-7.59.7-7.38,15.91-.12,15.83,7.96-.92,7.13-16.24.12-15.83Z"/>
    </g>
    <g>
      <path d="M66.42,576.41c-3.56.07-4.9,1.3-7.89,1.9-7.86,1.58-15.76-5.46-14.76-13.45.29-2.32,2.28-7.65,3.37-9.84,2.96-5.98,7.71-10.4,14.31-11.67,5.41-.96,10.78,1.69,14.73,5.21,3.13,2.79,7.31,8.63,8.49,12.84,2.29,8.19-4.91,16.39-13.56,15.48-1.63-.17-3.02-.56-4.7-.48h0ZM61.8,546.98c-4.5.89-7.67,3.7-10.15,7.4-1.42,2.12-3.87,8.07-4.25,10.82-.77,5.66,5.03,10.76,10.56,9.59,1.13-.24,2.18-.77,3.26-1.15,1.63-.57,3.28-.75,4.99-.86,2.29,0,3.68.47,5.73.61,5.77.4,10.82-5.44,9.2-10.97-.28-.97-.75-1.89-1.21-2.78-3.2-6.2-8.76-12.92-16.4-12.83-.46,0-1.3,0-1.74.15h0Z"/>
      <path d="M39.89,547.94c-6.6.67-12.73-4.59-13.68-11.02-.56-3.79,1.28-7.79,5.37-8.37,2.62-.78,5.81.48,7.99,1.9,2.79,1.81,4.88,4.82,5.55,8.08.87,4.23-.69,8.5-5.23,9.41h0ZM32.39,532c-6.18.87-.98,13.22,6.79,12.47,2.5-.57,2.91-3.1,2.42-5.3-.78-3.54-5.38-8.23-9.21-7.17h0Z"/>
      <path d="M86.36,543.4c-12.39,1.97-10.67-18.29,1.19-20.5,1.51-.37,3.43-.06,4.76.74,7.83,4.69,2.61,17.64-5.95,19.76h0ZM88.45,526.53c-7.7,1.34-9.74,13.95-2.94,13.42,7.44-1.86,9.69-13.79,2.94-13.42Z"/>
      <path d="M72.55,529.55c-5.43,1.07-9.68-3.72-10.84-8.58-1.31-5.51,1.17-12.78,7.22-14.16h.08c5.7-.96,9.98,4.61,10.8,9.7.82,5.12-1.55,12.14-7.26,13.05h0ZM69.76,510.36c-4.02.74-5.25,6-4.59,9.48.56,2.97,3.13,6.66,6.56,6.21,5.88-1.26,6.14-11.71,1.01-14.96-.88-.56-1.93-.9-2.98-.73Z"/>
      <path d="M50.39,531.71c-8.83,1.57-14.04-12.04-8.43-19.37,1.36-1.77,3.27-3.15,5.52-3.44,1.98-.46,4.22.37,5.8,1.56,7.61,5.75,5.83,20.11-2.89,21.26h0ZM47.64,512.52c-7.38,1.91-4.75,16.89,2.41,15.65,7.71-2.18,4.45-17.17-2.41-15.65Z"/>
    </g>
    <g>
      <path d="M149.09,465.22c-3.53-.46-5.04.56-8.09.71-8.01.41-14.79-7.72-12.62-15.47.63-2.25,3.38-7.23,4.78-9.24,3.8-5.48,9.15-9.15,15.87-9.44,5.49-.15,10.42,3.26,13.8,7.33,2.68,3.22,5.96,9.61,6.51,13.95,1.06,8.44-7.27,15.49-15.69,13.32-1.59-.41-2.9-1-4.58-1.17h0ZM148.85,435.44c-4.58.21-8.13,2.53-11.13,5.83-1.71,1.88-5.01,7.41-5.79,10.08-1.6,5.48,3.39,11.38,9.04,11.04,1.15-.07,2.27-.44,3.39-.65,1.69-.32,3.36-.26,5.06-.12,2.27.33,3.57,1.01,5.57,1.45,5.65,1.24,11.51-3.78,10.72-9.49-.14-1-.46-1.98-.79-2.93-2.25-6.6-6.76-14.07-14.33-15.1-.45-.06-1.29-.18-1.75-.11h0Z"/>
      <path d="M127.04,433.16c-6.63-.31-11.91-6.41-11.91-12.92,0-3.83,2.41-7.52,6.54-7.49,2.71-.38,5.67,1.33,7.62,3.06,2.49,2.2,4.12,5.48,4.3,8.81.24,4.31-1.93,8.31-6.56,8.54h0ZM121.97,416.29c-6.24-.05-2.91,12.94,4.88,13.34,2.55-.19,3.34-2.64,3.18-4.89-.25-3.61-4.11-8.93-8.05-8.45h0Z"/>
      <path d="M173.68,435.51c-12.54.13-7.86-19.66,4.2-20.1,1.55-.14,3.4.45,4.6,1.43,7.06,5.79-.02,17.83-8.8,18.67h0ZM178.22,419.13c-7.82.19-11.68,12.36-4.88,12.84,7.63-.75,11.61-12.22,4.88-12.84Z"/>
      <path d="M162.06,419.78c-5.53.26-9.03-5.11-9.46-10.09-.48-5.64,3.04-12.47,9.23-12.94h.08c5.78-.1,9.2,6.04,9.26,11.19.05,5.19-3.32,11.78-9.1,11.84h0ZM162.12,400.39c-4.08.14-6.08,5.16-5.94,8.7.12,3.02,2.12,7.05,5.57,7.11,6-.39,7.79-10.68,3.2-14.65-.79-.68-1.78-1.17-2.84-1.16Z"/>
      <path d="M139.82,418.65c-8.97.25-12.12-13.97-5.48-20.4,1.6-1.55,3.7-2.63,5.97-2.59,2.03-.16,4.12.99,5.51,2.39,6.68,6.81,2.8,20.75-5.99,20.6h0ZM139.92,399.27c-7.58.8-7.19,16,.08,15.83,7.94-1.02,6.93-16.33-.08-15.83Z"/>
    </g>
    <g>
      <path d="M64.68,385.8c-3.56.08-4.9,1.31-7.89,1.92-7.86,1.61-15.78-5.42-14.79-13.41.29-2.32,2.26-7.66,3.34-9.85,2.94-5.98,7.68-10.42,14.28-11.71,5.41-.97,10.79,1.66,14.75,5.17,3.14,2.78,7.34,8.61,8.53,12.82,2.31,8.18-4.87,16.4-13.51,15.52-1.63-.17-3.02-.55-4.7-.47h0ZM59.98,356.39c-4.5.9-7.66,3.72-10.13,7.43-1.41,2.12-3.84,8.08-4.22,10.83-.76,5.66,5.06,10.74,10.59,9.56,1.13-.24,2.18-.77,3.26-1.16,1.63-.57,3.28-.76,4.99-.87,2.29-.01,3.68.46,5.73.59,5.77.38,10.81-5.47,9.17-10.99-.29-.96-.75-1.89-1.22-2.78-3.22-6.19-8.8-12.9-16.43-12.78-.46.01-1.3.01-1.74.16h0Z"/>
      <path d="M38.07,357.41c-6.6.69-12.74-4.55-13.71-10.99-.57-3.79,1.26-7.79,5.35-8.38,2.62-.79,5.81.47,7.99,1.88,2.8,1.8,4.9,4.8,5.58,8.07.88,4.23-.67,8.5-5.21,9.43h0ZM30.53,341.49c-6.18.88-.94,13.23,6.82,12.45,2.49-.57,2.9-3.11,2.41-5.31-.79-3.54-5.4-8.22-9.23-7.15h0Z"/>
      <path d="M84.54,352.74c-12.38,2-10.72-18.26,1.14-20.51,1.51-.37,3.43-.07,4.76.73,7.85,4.67,2.66,17.63-5.9,19.78h0ZM86.57,335.86c-7.7,1.36-9.7,13.97-2.9,13.43,7.43-1.88,9.65-13.82,2.9-13.43Z"/>
      <path d="M70.69,338.93c-5.43,1.09-9.69-3.69-10.86-8.56-1.32-5.51,1.14-12.78,7.18-14.18h.08c5.7-.98,10,4.58,10.83,9.67.83,5.12-1.52,12.15-7.23,13.07h0ZM67.84,319.75c-4.02.75-5.23,6.01-4.57,9.49.57,2.97,3.15,6.65,6.57,6.19,5.87-1.28,6.1-11.73.97-14.96-.88-.56-1.93-.89-2.98-.72Z"/>
      <path d="M48.53,341.15c-8.83,1.59-14.07-12-8.48-19.35,1.35-1.78,3.26-3.16,5.51-3.45,1.98-.47,4.22.36,5.8,1.54,7.63,5.73,5.88,20.1-2.83,21.26h0ZM45.73,321.97c-7.38,1.93-4.71,16.9,2.45,15.64,7.7-2.2,4.4-17.19-2.45-15.64Z"/>
    </g>
    <g>
      <path d="M149.98,295.31c-3.55-.28-5,.81-8.04,1.12-7.98.81-15.16-6.97-13.38-14.82.52-2.28,3.02-7.39,4.31-9.47,3.52-5.66,8.68-9.6,15.37-10.22,5.48-.43,10.57,2.73,14.16,6.62,2.84,3.08,6.44,9.3,7.2,13.61,1.48,8.37-6.48,15.84-15,14.09-1.61-.33-2.95-.85-4.63-.93h0ZM148.24,265.58c-4.56.45-7.99,2.93-10.82,6.38-1.62,1.97-4.63,7.66-5.28,10.36-1.32,5.55,3.96,11.19,9.58,10.57,1.14-.13,2.24-.55,3.36-.82,1.68-.41,3.34-.43,5.05-.37,2.28.22,3.62.82,5.64,1.16,5.71.96,11.3-4.36,10.23-10.02-.19-.99-.56-1.95-.93-2.88-2.58-6.48-7.46-13.71-15.07-14.36-.46-.04-1.3-.12-1.75-.02h0Z"/>
      <path d="M126.34,264.4c-6.64.02-12.22-5.8-12.54-12.3-.19-3.83,2.03-7.63,6.16-7.81,2.69-.52,5.73,1.05,7.77,2.67,2.6,2.07,4.39,5.27,4.74,8.58.45,4.3-1.51,8.39-6.12,8.86h0ZM120.42,247.81c-6.24.26-2.26,13.07,5.54,13.07,2.54-.32,3.2-2.8,2.93-5.04-.43-3.6-4.55-8.71-8.47-8.04h0Z"/>
      <path d="M173.04,264.4c-12.52.76-8.84-19.24,3.18-20.29,1.54-.22,3.42.28,4.66,1.2,7.34,5.43.88,17.81-7.84,19.09h0ZM176.75,247.81c-7.8.59-11.05,12.93-4.23,13.07,7.58-1.13,10.98-12.79,4.23-13.07Z"/>
      <path d="M160.64,249.27c-5.51.54-9.28-4.64-9.95-9.6-.77-5.61,2.41-12.61,8.56-13.39h.08c5.77-.39,9.49,5.57,9.81,10.71.32,5.18-2.73,11.93-8.5,12.28h0ZM159.72,229.9c-4.07.34-5.81,5.46-5.49,8.99.27,3.01,2.47,6.93,5.92,6.82,5.97-.69,7.25-11.06,2.46-14.79-.82-.64-1.84-1.08-2.89-1.02Z"/>
      <path d="M138.37,249.27c-8.94.7-12.81-13.34-6.5-20.1,1.52-1.63,3.56-2.82,5.83-2.89,2.02-.27,4.17.78,5.62,2.11,7.02,6.46,3.84,20.59-4.95,20.88h0ZM137.5,229.9c-7.53,1.18-6.37,16.34.88,15.81,7.88-1.42,6.1-16.66-.88-15.81Z"/>
    </g>
    <g>
      <path d="M64.21,202.13c-3.56.11-4.88,1.36-7.87,2-7.84,1.68-15.83-5.26-14.93-13.26.26-2.32,2.18-7.68,3.24-9.89,2.88-6.01,7.57-10.49,14.16-11.85,5.4-1.03,10.8,1.55,14.8,5.02,3.17,2.75,7.42,8.53,8.66,12.73,2.39,8.16-4.7,16.45-13.36,15.65-1.63-.15-3.02-.52-4.7-.42h0ZM59.21,172.77c-4.49.94-7.62,3.79-10.05,7.53-1.39,2.13-3.76,8.12-4.11,10.88-.7,5.67,5.16,10.69,10.69,9.45,1.12-.25,2.17-.79,3.24-1.19,1.62-.59,3.27-.79,4.98-.92,2.29-.03,3.69.42,5.73.54,5.78.32,10.75-5.58,9.06-11.08-.3-.96-.77-1.88-1.24-2.76-3.28-6.16-8.93-12.81-16.56-12.61-.46.02-1.3.03-1.74.17h0Z"/>
      <path d="M37.31,174.01c-6.59.75-12.78-4.42-13.82-10.85-.61-3.78,1.18-7.81,5.26-8.44,2.61-.81,5.81.41,8.01,1.8,2.81,1.78,4.94,4.75,5.66,8.01.92,4.22-.58,8.51-5.11,9.48h0ZM29.61,158.17c-6.17.95-.81,13.24,6.95,12.39,2.49-.6,2.87-3.14,2.35-5.33-.83-3.53-5.48-8.16-9.3-7.06h0Z"/>
      <path d="M83.73,168.88c-12.36,2.13-10.91-18.15.93-20.52,1.51-.39,3.43-.1,4.77.68,7.89,4.59,2.84,17.61-5.7,19.84h0ZM85.6,151.97c-7.69,1.44-9.56,14.07-2.76,13.46,7.41-1.96,9.51-13.91,2.76-13.46Z"/>
      <path d="M69.74,155.2c-5.42,1.14-9.73-3.6-10.95-8.45-1.38-5.5,1.01-12.79,7.04-14.25h.08c5.69-1.03,10.04,4.48,10.93,9.56.88,5.11-1.4,12.16-7.09,13.14h0ZM66.7,136.05c-4.01.79-5.17,6.07-4.47,9.54.6,2.96,3.22,6.62,6.64,6.13,5.86-1.34,5.99-11.79.82-14.97-.89-.55-1.94-.87-2.98-.69Z"/>
      <path d="M47.61,157.64c-8.81,1.68-14.19-11.86-8.67-19.27,1.33-1.79,3.23-3.19,5.48-3.51,1.98-.49,4.23.31,5.82,1.48,7.69,5.65,6.08,20.04-2.62,21.29h0ZM44.61,138.49c-7.36,2-4.54,16.95,2.61,15.62,7.68-2.28,4.23-17.23-2.61-15.62Z"/>
    </g>
    <g>
      <path d="M139.41,108.6c-3.56,0-4.93,1.19-7.93,1.73-7.9,1.42-15.64-5.79-14.47-13.75.34-2.31,2.44-7.6,3.57-9.77,3.08-5.91,7.92-10.23,14.55-11.37,5.43-.84,10.74,1.91,14.62,5.52,3.07,2.86,7.13,8.78,8.22,13.02,2.12,8.23-5.25,16.29-13.87,15.2-1.63-.2-3.01-.62-4.69-.58h0ZM135.41,79.08c-4.52.79-7.74,3.54-10.3,7.19-1.46,2.09-4.03,7.99-4.47,10.73-.89,5.64,4.8,10.86,10.36,9.81,1.13-.22,2.19-.72,3.28-1.08,1.64-.53,3.3-.68,5.01-.76,2.29.04,3.67.55,5.71.73,5.76.52,10.93-5.21,9.43-10.77-.26-.97-.71-1.9-1.15-2.8-3.07-6.26-8.49-13.1-16.13-13.16-.46,0-1.3-.02-1.75.11h0Z"/>
      <path d="M113.48,79.59c-6.62.53-12.63-4.85-13.45-11.31-.48-3.8,1.44-7.76,5.54-8.26,2.64-.72,5.8.61,7.95,2.07,2.75,1.87,4.78,4.92,5.38,8.19.78,4.25-.87,8.49-5.43,9.3h0ZM106.31,63.49c-6.2.74-1.25,13.2,6.53,12.61,2.51-.51,2.98-3.04,2.53-5.25-.71-3.55-5.2-8.34-9.06-7.36h0Z"/>
      <path d="M160.04,76.01c-12.43,1.71-10.29-18.51,1.62-20.47,1.52-.34,3.43.02,4.74.84,7.73,4.85,2.24,17.69-6.36,19.63h0ZM162.48,59.19c-7.73,1.18-10.03,13.74-3.21,13.36,7.47-1.71,9.97-13.59,3.21-13.36Z"/>
      <path d="M146.52,61.87c-5.45.96-9.61-3.92-10.66-8.81-1.19-5.54,1.44-12.75,7.51-14.01h.08c5.72-.84,9.89,4.82,10.6,9.92.71,5.14-1.81,12.11-7.53,12.89h0ZM144.13,42.63c-4.03.65-5.37,5.89-4.79,9.38.5,2.98,3,6.72,6.43,6.35,5.9-1.14,6.38-11.58,1.32-14.94-.87-.58-1.91-.94-2.96-.79Z"/>
      <path d="M124.32,63.58c-8.86,1.38-13.79-12.33-8.02-19.55,1.39-1.74,3.33-3.08,5.59-3.32,1.99-.42,4.22.46,5.77,1.68,7.49,5.91,5.41,20.23-3.33,21.19h0ZM121.97,44.33c-7.42,1.75-5.1,16.78,2.08,15.7,7.75-2.02,4.81-17.08-2.08-15.7Z"/>
    </g>
  </g>
  <g>
    <g>
      <path d="M1231.63,920.1c1.02,3.41.26,5.06.59,8.1.88,7.97,10,13.35,17.3,9.97,2.12-.98,6.6-4.5,8.35-6.2,4.79-4.63,7.56-10.5,6.77-17.18-.73-5.45-4.89-9.76-9.45-12.45-3.61-2.13-10.44-4.34-14.82-4.18-8.5.31-14.12,9.67-10.63,17.62.66,1.5,1.45,2.7,1.89,4.33h0ZM1261.07,915.55c.52,4.55-1.19,8.43-3.97,11.92-1.59,1.99-6.51,6.14-9.02,7.34-5.15,2.46-11.78-1.52-12.35-7.15-.11-1.15.07-2.31.1-3.45.05-1.72-.28-3.36-.7-5.02-.69-2.18-1.57-3.36-2.32-5.27-2.13-5.38,1.89-11.96,7.65-12.1,1.01-.02,2.03.14,3.01.31,6.88,1.16,14.97,4.42,17.2,11.72.13.44.39,1.24.39,1.71h0Z"/>
      <path d="M1266.82,936.72c1.37,6.49,8.24,10.73,14.66,9.68,3.78-.62,7.03-3.59,6.34-7.66-.06-2.74-2.23-5.39-4.24-7.03-2.57-2.11-6.07-3.19-9.39-2.83-4.3.46-7.89,3.24-7.38,7.85h0ZM1284.28,939.02c1.05,6.15-12.3,4.95-13.95-2.67-.22-2.55,2.07-3.72,4.31-3.92,3.61-.33,9.48,2.62,9.63,6.59h0Z"/>
      <path d="M1257.01,891.06c1.89,12.4,20.67,4.6,19.17-7.37-.11-1.55-.99-3.28-2.15-4.31-6.85-6.04-17.6,2.88-17.02,11.68h0ZM1272.45,883.95c1.06,7.75-10.33,13.52-11.89,6.88-.49-7.65,10.19-13.42,11.89-6.88Z"/>
      <path d="M1274.41,900.01c.63,5.5,6.49,8.09,11.47,7.72,5.65-.43,11.82-5,11.29-11.18v-.08c-.84-5.72-7.45-8.11-12.54-7.34-5.13.78-11.1,5.17-10.22,10.89h0ZM1293.54,896.83c.52,4.05-4.12,6.83-7.63,7.26-3,.37-7.29-.96-7.91-4.36-.58-5.98,9.29-9.41,13.95-5.51.8.67,1.44,1.57,1.6,2.61Z"/>
      <path d="M1279.09,921.78c1.19,8.89,15.74,9.72,21.02,2.14,1.28-1.83,2.01-4.07,1.6-6.3-.16-2.03-1.64-3.91-3.25-5.05-7.8-5.5-20.93.57-19.37,9.22h0ZM1298.2,918.56c.43,7.61-14.64,9.66-15.64,2.47-.27-8.01,15.01-9.46,15.64-2.47Z"/>
    </g>
    <g>
      <path d="M1312.82,973.35c-.65,3.5-2.08,4.62-3.16,7.48-2.85,7.5,2.81,16.44,10.85,16.76,2.34.09,7.92-1,10.26-1.71,6.38-1.94,11.52-5.9,13.85-12.21,1.83-5.18.1-10.91-2.73-15.39-2.24-3.54-7.31-8.63-11.28-10.48-7.7-3.6-16.97,2.16-17.49,10.84-.1,1.64.06,3.07-.3,4.71h0ZM1341.1,982.72c-1.61,4.29-4.9,6.96-8.97,8.8-2.32,1.05-8.59,2.49-11.37,2.42-5.71-.16-9.79-6.72-7.73-11.99.42-1.07,1.11-2.02,1.66-3.03.83-1.51,1.28-3.11,1.67-4.78.38-2.26.14-3.71.34-5.75.55-5.76,7.14-9.79,12.33-7.29.91.44,1.74,1.05,2.54,1.65,5.59,4.17,11.31,10.76,9.97,18.28-.08.45-.22,1.28-.43,1.7h0Z"/>
      <path d="M1336.56,1004.18c-1.74,6.4,2.44,13.3,8.64,15.3,3.65,1.18,7.89.01,9.14-3.93,1.2-2.46.47-5.81-.57-8.19-1.33-3.05-3.95-5.6-7.06-6.8-4.03-1.55-8.5-.71-10.14,3.62h0ZM1351.06,1014.19c-1.87,5.96-13.21-1.2-11.19-8.74.97-2.37,3.53-2.37,5.62-1.52,3.36,1.35,7.24,6.65,5.57,10.26h0Z"/>
      <path d="M1348.65,959.08c-3.97,11.9,16.3,13.52,20.42,2.18.61-1.43.62-3.37.05-4.82-3.34-8.49-16.98-5.46-20.47,2.64h0ZM1365.64,959.78c-2.58,7.38-15.35,7.32-13.72.7,3.06-7.03,15.19-7.3,13.72-.7Z"/>
      <path d="M1360.06,974.97c-1.95,5.18,2.09,10.16,6.69,12.1,5.22,2.19,12.8.93,15.15-4.8l.02-.07c1.87-5.47-2.92-10.61-7.81-12.25-4.92-1.65-12.23-.46-14.06,5.03h0ZM1378.53,980.86c-1.39,3.84-6.78,4.2-10.1,2.98-2.84-1.04-6.05-4.18-5.06-7.49,2.21-5.59,12.56-4.14,14.93,1.45.41.96.57,2.05.23,3.05Z"/>
      <path d="M1354.29,996.47c-2.99,8.45,9.58,15.82,17.73,11.49,1.97-1.05,3.64-2.71,4.3-4.88.78-1.88.33-4.23-.59-5.98-4.43-8.45-18.89-9.04-21.44-.63h0ZM1372.78,1002.33c-3.09,6.97-17.44,1.92-15.04-4.94,3.41-7.25,17.67-1.58,15.04,4.94Z"/>
    </g>
    <g>
      <path d="M1399.8,912.26c1.02,3.41.26,5.06.59,8.1.88,7.97,10,13.35,17.3,9.97,2.12-.98,6.6-4.5,8.35-6.2,4.79-4.63,7.56-10.5,6.77-17.18-.73-5.45-4.89-9.76-9.45-12.45-3.61-2.13-10.44-4.34-14.82-4.18-8.5.31-14.12,9.67-10.63,17.62.66,1.5,1.45,2.7,1.89,4.33h0ZM1429.23,907.72c.52,4.55-1.19,8.43-3.97,11.92-1.59,1.99-6.51,6.14-9.02,7.34-5.15,2.46-11.78-1.52-12.35-7.15-.11-1.15.07-2.31.1-3.45.05-1.72-.28-3.36-.7-5.02-.69-2.18-1.57-3.36-2.32-5.27-2.13-5.38,1.89-11.96,7.65-12.1,1.01-.02,2.03.14,3.01.31,6.88,1.16,14.97,4.42,17.2,11.72.13.44.39,1.24.39,1.71h0Z"/>
      <path d="M1434.98,928.89c1.37,6.49,8.24,10.73,14.66,9.68,3.78-.62,7.03-3.59,6.34-7.66-.06-2.74-2.23-5.39-4.24-7.03-2.57-2.11-6.07-3.19-9.39-2.83-4.3.46-7.89,3.24-7.38,7.85h0ZM1452.45,931.18c1.05,6.15-12.3,4.95-13.95-2.67-.22-2.55,2.07-3.72,4.31-3.92,3.61-.33,9.48,2.62,9.63,6.59h0Z"/>
      <path d="M1425.17,883.23c1.89,12.4,20.67,4.6,19.17-7.37-.11-1.55-.99-3.28-2.15-4.31-6.85-6.04-17.6,2.88-17.02,11.68h0ZM1440.62,876.11c1.06,7.75-10.33,13.52-11.89,6.88-.49-7.65,10.19-13.42,11.89-6.88Z"/>
      <path d="M1442.57,892.17c.63,5.5,6.49,8.09,11.47,7.72,5.65-.43,11.82-5,11.29-11.18v-.08c-.84-5.72-7.45-8.11-12.54-7.34-5.13.78-11.1,5.17-10.22,10.89h0ZM1461.7,889c.52,4.05-4.12,6.83-7.63,7.26-3,.37-7.29-.96-7.91-4.36-.58-5.98,9.29-9.41,13.95-5.51.8.67,1.44,1.57,1.6,2.61Z"/>
      <path d="M1447.25,913.94c1.19,8.89,15.74,9.72,21.02,2.14,1.28-1.83,2.01-4.07,1.6-6.3-.16-2.03-1.64-3.91-3.25-5.05-7.8-5.5-20.93.57-19.37,9.22h0ZM1466.37,910.73c.43,7.61-14.64,9.66-15.64,2.47-.27-8.01,15.01-9.46,15.64-2.47Z"/>
    </g>
    <g>
      <path d="M1540.05,972.9c1.02,3.41.26,5.06.59,8.1.88,7.97,10,13.35,17.3,9.97,2.12-.98,6.6-4.5,8.35-6.2,4.79-4.63,7.56-10.5,6.77-17.18-.73-5.45-4.89-9.76-9.45-12.45-3.61-2.13-10.44-4.34-14.82-4.18-8.5.31-14.12,9.67-10.63,17.62.66,1.5,1.45,2.7,1.89,4.33h0ZM1569.49,968.35c.52,4.55-1.19,8.43-3.97,11.92-1.59,1.99-6.51,6.14-9.02,7.34-5.15,2.46-11.78-1.52-12.35-7.15-.11-1.15.07-2.31.1-3.45.05-1.72-.28-3.36-.7-5.02-.69-2.18-1.57-3.36-2.32-5.27-2.13-5.38,1.89-11.96,7.65-12.1,1.01-.02,2.03.14,3.01.31,6.88,1.16,14.97,4.42,17.2,11.72.13.44.39,1.24.39,1.71h0Z"/>
      <path d="M1575.24,989.52c1.37,6.49,8.24,10.73,14.66,9.68,3.78-.62,7.03-3.59,6.34-7.66-.06-2.74-2.23-5.39-4.24-7.03-2.57-2.11-6.07-3.19-9.39-2.83-4.3.46-7.89,3.24-7.38,7.85h0ZM1592.71,991.81c1.05,6.15-12.3,4.95-13.95-2.67-.22-2.55,2.07-3.72,4.31-3.92,3.61-.33,9.48,2.62,9.63,6.59h0Z"/>
      <path d="M1565.43,943.86c1.89,12.4,20.67,4.6,19.17-7.37-.11-1.55-.99-3.28-2.15-4.31-6.85-6.04-17.6,2.88-17.02,11.68h0ZM1580.87,936.74c1.06,7.75-10.33,13.52-11.89,6.88-.49-7.65,10.19-13.42,11.89-6.88Z"/>
      <path d="M1582.83,952.8c.63,5.5,6.49,8.09,11.47,7.72,5.65-.43,11.82-5,11.29-11.18v-.08c-.84-5.72-7.45-8.11-12.54-7.34-5.13.78-11.1,5.17-10.22,10.89h0ZM1601.96,949.63c.52,4.05-4.12,6.83-7.63,7.26-3,.37-7.29-.96-7.91-4.36-.58-5.98,9.29-9.41,13.95-5.51.8.67,1.44,1.57,1.6,2.61Z"/>
      <path d="M1587.51,974.57c1.19,8.89,15.74,9.72,21.02,2.14,1.28-1.83,2.01-4.07,1.6-6.3-.16-2.03-1.64-3.91-3.25-5.05-7.8-5.5-20.93.57-19.37,9.22h0ZM1606.63,971.36c.43,7.61-14.64,9.66-15.64,2.47-.27-8.01,15.01-9.46,15.64-2.47Z"/>
    </g>
    <g>
      <path d="M1651.29,894.08c1.7,3.13,1.3,4.9,2.25,7.8,2.51,7.62,12.54,11,18.98,6.19,1.87-1.4,5.53-5.77,6.89-7.79,3.73-5.52,5.23-11.84,3.08-18.21-1.84-5.18-6.79-8.54-11.81-10.23-3.97-1.34-11.11-2.1-15.36-1.04-8.25,2.06-11.82,12.37-6.76,19.43.95,1.33,1.98,2.35,2.74,3.85h0ZM1679.16,883.56c1.45,4.35.57,8.49-1.42,12.48-1.14,2.28-5.11,7.35-7.31,9.04-4.54,3.47-11.84.94-13.56-4.45-.35-1.1-.41-2.27-.61-3.4-.31-1.7-.97-3.23-1.72-4.76-1.13-1.99-2.23-2.97-3.36-4.68-3.2-4.82-.62-12.1,4.99-13.42.98-.23,2.01-.28,3.01-.32,6.97-.28,15.56,1.23,19.25,7.92.22.4.64,1.14.73,1.59h0Z"/>
      <path d="M1689.15,903.08c2.68,6.07,10.27,8.8,16.34,6.45,3.57-1.38,6.14-4.96,4.63-8.8-.62-2.67-3.29-4.81-5.6-6.01-2.95-1.53-6.6-1.86-9.77-.84-4.11,1.34-7.05,4.8-5.6,9.2h0ZM1706.71,901.73c2.3,5.8-11.01,7.38-14.2.26-.74-2.45,1.26-4.06,3.41-4.72,3.46-1.07,9.81.61,10.79,4.46h0Z"/>
      <path d="M1670.13,860.43c4.41,11.74,21.18.24,17.24-11.17-.43-1.5-1.65-3.01-2.99-3.77-7.94-4.49-16.63,6.45-14.24,14.94h0ZM1683.78,850.28c2.64,7.36-7.31,15.36-10.22,9.18-2.05-7.39,7.2-15.24,10.22-9.18Z"/>
      <path d="M1689,865.59c1.75,5.25,8.02,6.58,12.82,5.18,5.44-1.59,10.53-7.33,8.74-13.27l-.03-.07c-1.99-5.43-8.95-6.4-13.78-4.6-4.86,1.82-9.79,7.35-7.76,12.76h0ZM1707.07,858.54c1.34,3.86-2.62,7.53-5.97,8.68-2.86.98-7.34.56-8.64-2.63-1.8-5.74,7.15-11.12,12.51-8.27.92.49,1.74,1.24,2.1,2.23Z"/>
      <path d="M1698.07,885.93c3,8.45,17.4,6.26,21.01-2.25.87-2.06,1.12-4.4.26-6.5-.58-1.95-2.41-3.49-4.22-4.27-8.76-3.78-20.37,4.87-17.05,13.02h0ZM1716.12,878.84c1.99,7.36-12.33,12.47-14.8,5.64-1.91-7.78,12.73-12.35,14.8-5.64Z"/>
    </g>
    <g>
      <path d="M1785.42,889.06c3.06,1.82,3.62,3.55,5.92,5.56,6.05,5.27,16.4,3.06,19.48-4.37.9-2.16,1.81-7.78,1.95-10.22.39-6.66-1.55-12.85-6.65-17.22-4.23-3.51-10.2-3.87-15.38-2.77-4.1.87-10.63,3.87-13.74,6.95-6.04,5.98-3.85,16.67,4.11,20.16,1.5.66,2.9,1.01,4.32,1.91h0ZM1804.01,865.79c3.47,3,4.83,7.01,5.15,11.46.18,2.54-.64,8.93-1.67,11.51-2.13,5.3-9.69,6.86-13.93,3.1-.86-.77-1.51-1.74-2.26-2.61-1.13-1.3-2.48-2.28-3.91-3.22-1.99-1.14-3.43-1.42-5.28-2.31-5.21-2.51-6.71-10.08-2.57-14.09.72-.7,1.59-1.27,2.43-1.81,5.85-3.8,14.01-6.89,20.6-3.02.39.24,1.13.65,1.44.99h0Z"/>
      <path d="M1822.57,877.47c5.41,3.85,13.33,2.32,17.34-2.8,2.37-3.02,2.75-7.4-.52-9.93-1.89-1.98-5.29-2.46-7.88-2.3-3.32.19-6.63,1.77-8.83,4.27-2.85,3.25-3.61,7.73-.12,10.77h0ZM1836.98,867.33c4.94,3.81-5.7,11.97-12.07,7.48-1.89-1.73-1-4.13.52-5.8,2.43-2.69,8.75-4.49,11.55-1.67h0Z"/>
      <path d="M1784.44,850.51c9.79,7.85,18.33-10.61,9.12-18.4-1.13-1.07-2.95-1.75-4.5-1.71-9.13.19-11,14.03-4.62,20.12h0ZM1790.99,834.82c6.03,4.98,1.55,16.94-4.1,13.12-5.54-5.3-1.59-16.78,4.1-13.12Z"/>
      <path d="M1803.3,845.31c4.19,3.62,10.26,1.56,13.67-2.09,3.87-4.14,5.31-11.68.74-15.88l-.06-.05c-4.49-3.65-10.96-.93-14.19,3.08-3.25,4.05-4.66,11.32-.15,14.93h0ZM1815.23,830.03c3.13,2.63,1.59,7.81-.7,10.51-1.96,2.3-6.02,4.23-8.77,2.15-4.48-4.01.47-13.21,6.53-13.5,1.04-.05,2.12.18,2.95.84Z"/>
      <path d="M1821.48,858.17c6.9,5.74,18.16-3.5,16.92-12.66-.3-2.21-1.28-4.35-3.09-5.72-1.5-1.38-3.85-1.77-5.81-1.52-9.46,1.23-15.02,14.59-8.01,19.9h0ZM1833.38,842.86c5.47,5.31-4.23,17.02-9.84,12.4-5.62-5.71,4.64-17.12,9.84-12.4Z"/>
    </g>
    <g>
      <path d="M1836.48,769.22c3.42-.97,5.07-.19,8.1-.48,7.98-.78,13.49-9.82,10.2-17.16-.95-2.13-4.41-6.66-6.09-8.43-4.57-4.86-10.4-7.7-17.09-6.99-5.46.66-9.82,4.75-12.57,9.28-2.18,3.58-4.48,10.38-4.38,14.76.2,8.5,9.48,14.25,17.48,10.86,1.51-.64,2.72-1.42,4.35-1.83h0ZM1832.33,739.73c4.56-.46,8.41,1.3,11.87,4.13,1.97,1.61,6.05,6.59,7.21,9.12,2.39,5.19-1.67,11.76-7.31,12.25-1.15.1-2.31-.1-3.45-.15-1.72-.07-3.36.24-5.02.63-2.19.66-3.38,1.52-5.3,2.25-5.41,2.06-11.94-2.05-12-7.81-.01-1.01.17-2.03.35-3.01,1.26-6.86,4.62-14.91,11.95-17.05.44-.12,1.25-.37,1.71-.36h0Z"/>
      <path d="M1853.57,734.26c6.51-1.28,10.84-8.09,9.87-14.53-.57-3.79-3.49-7.08-7.57-6.44-2.74.02-5.42,2.16-7.09,4.15-2.14,2.55-3.27,6.03-2.96,9.35.4,4.3,3.14,7.93,7.75,7.48h0ZM1856.1,716.83c6.17-.97,4.79,12.37-2.86,13.91-2.55.19-3.69-2.12-3.86-4.36-.28-3.61,2.75-9.44,6.72-9.55h0Z"/>
      <path d="M1807.79,743.46c12.42-1.72,4.88-20.61-7.11-19.27-1.56.09-3.3.95-4.34,2.09-6.13,6.77,2.64,17.64,11.45,17.17h0ZM1800.88,727.92c7.76-.96,13.38,10.5,6.72,11.99-7.66.38-13.29-10.37-6.72-11.99Z"/>
      <path d="M1816.96,726.18c5.51-.56,8.18-6.38,7.87-11.37-.35-5.65-4.85-11.88-11.03-11.44h-.08c-5.73.76-8.21,7.34-7.51,12.44.71,5.14,5.02,11.16,10.75,10.37h0ZM1814.04,707.01c4.06-.46,6.77,4.21,7.15,7.73.33,3.01-1.06,7.28-4.46,7.85-5.99.5-9.28-9.42-5.33-14.02.68-.79,1.59-1.42,2.63-1.57Z"/>
      <path d="M1838.79,721.8c8.9-1.07,9.93-15.6,2.42-20.99-1.82-1.3-4.04-2.06-6.28-1.68-2.03.14-3.93,1.58-5.09,3.18-5.61,7.72.29,20.94,8.96,19.49h0ZM1835.83,702.64c7.62-.33,9.47,14.77,2.26,15.67-8.01.16-9.26-15.13-2.26-15.67Z"/>
    </g>
    <g>
      <path d="M1786.59,671.71c3.52-.5,5.05.5,8.09.61,8.02.31,14.69-7.91,12.42-15.63-.66-2.24-3.47-7.19-4.89-9.18-3.87-5.43-9.27-9.03-15.99-9.24-5.5-.08-10.37,3.38-13.71,7.5-2.64,3.25-5.84,9.68-6.33,14.03-.95,8.45,7.47,15.4,15.85,13.12,1.58-.43,2.89-1.04,4.56-1.22h0ZM1786.46,641.92c4.58.16,8.16,2.43,11.2,5.69,1.74,1.86,5.1,7.35,5.92,10.01,1.67,5.46-3.25,11.42-8.9,11.15-1.15-.06-2.27-.41-3.4-.61-1.7-.3-3.36-.22-5.06-.05-2.26.36-3.56,1.05-5.56,1.52-5.64,1.31-11.55-3.64-10.84-9.36.13-1,.44-1.98.75-2.94,2.17-6.63,6.59-14.15,14.14-15.28.45-.06,1.29-.2,1.75-.13h0Z"/>
      <path d="M1808.24,639.37c6.63-.39,11.83-6.56,11.75-13.06-.05-3.83-2.51-7.49-6.63-7.41-2.71-.35-5.66,1.4-7.58,3.15-2.47,2.23-4.05,5.53-4.19,8.86-.18,4.32,2.04,8.28,6.67,8.46h0ZM1813.11,622.44c6.24-.13,3.07,12.9-4.71,13.4-2.55-.16-3.37-2.59-3.24-4.85.21-3.62,3.99-8.98,7.95-8.55h0Z"/>
      <path d="M1761.64,642.31c12.54-.03,7.62-19.76-4.45-20.05-1.55-.12-3.39.49-4.58,1.49-6.98,5.88.24,17.83,9.03,18.56h0ZM1756.89,625.98c7.82.1,11.84,12.21,5.04,12.78-7.64-.65-11.77-12.07-5.04-12.78Z"/>
      <path d="M1773.06,626.42c5.53.19,8.97-5.22,9.33-10.2.41-5.65-3.2-12.43-9.39-12.83h-.08c-5.78-.03-9.12,6.16-9.12,11.31,0,5.19,3.47,11.74,9.25,11.72h0ZM1772.76,607.04c4.08.09,6.14,5.09,6.05,8.63-.08,3.02-2.03,7.07-5.48,7.18-6-.31-7.93-10.58-3.38-14.61.78-.69,1.76-1.2,2.82-1.2Z"/>
      <path d="M1795.28,625.03c8.97.14,11.94-14.12,5.23-20.47-1.62-1.53-3.73-2.59-6-2.52-2.03-.14-4.11,1.04-5.48,2.46-6.6,6.89-2.54,20.79,6.25,20.52h0ZM1794.94,605.64c7.59.7,7.38,15.91.12,15.83-7.96-.92-7.13-16.24-.12-15.83Z"/>
    </g>
    <g>
      <path d="M1853.58,576.41c3.56.07,4.9,1.3,7.89,1.9,7.86,1.58,15.76-5.46,14.76-13.45-.29-2.32-2.28-7.65-3.37-9.84-2.96-5.98-7.71-10.4-14.31-11.67-5.41-.96-10.78,1.69-14.73,5.21-3.13,2.79-7.31,8.63-8.49,12.84-2.29,8.19,4.91,16.39,13.56,15.48,1.63-.17,3.02-.56,4.7-.48h0ZM1858.2,546.98c4.5.89,7.67,3.7,10.15,7.4,1.42,2.12,3.87,8.07,4.25,10.82.77,5.66-5.03,10.76-10.56,9.59-1.13-.24-2.18-.77-3.26-1.15-1.63-.57-3.28-.75-4.99-.86-2.29,0-3.68.47-5.73.61-5.77.4-10.82-5.44-9.2-10.97.28-.97.75-1.89,1.21-2.78,3.2-6.2,8.76-12.92,16.4-12.83.46,0,1.3,0,1.74.15h0Z"/>
      <path d="M1880.11,547.94c6.6.67,12.73-4.59,13.68-11.02.56-3.79-1.28-7.79-5.37-8.37-2.62-.78-5.81.48-7.99,1.9-2.79,1.81-4.88,4.82-5.55,8.08-.87,4.23.69,8.5,5.23,9.41h0ZM1887.61,532c6.18.87.98,13.22-6.79,12.47-2.5-.57-2.91-3.1-2.42-5.3.78-3.54,5.38-8.23,9.21-7.17h0Z"/>
      <path d="M1833.64,543.4c12.39,1.97,10.67-18.29-1.19-20.5-1.51-.37-3.43-.06-4.76.74-7.83,4.69-2.61,17.64,5.95,19.76h0ZM1831.55,526.53c7.7,1.34,9.74,13.95,2.94,13.42-7.44-1.86-9.69-13.79-2.94-13.42Z"/>
      <path d="M1847.45,529.55c5.43,1.07,9.68-3.72,10.84-8.58,1.31-5.51-1.17-12.78-7.22-14.16h-.08c-5.7-.96-9.98,4.61-10.8,9.7-.82,5.12,1.55,12.14,7.26,13.05h0ZM1850.24,510.36c4.02.74,5.25,6,4.59,9.48-.56,2.97-3.13,6.66-6.56,6.21-5.88-1.26-6.14-11.71-1.01-14.96.88-.56,1.93-.9,2.98-.73Z"/>
      <path d="M1869.61,531.71c8.83,1.57,14.04-12.04,8.43-19.37-1.36-1.77-3.27-3.15-5.52-3.44-1.98-.46-4.22.37-5.8,1.56-7.61,5.75-5.83,20.11,2.89,21.26h0ZM1872.36,512.52c7.38,1.91,4.75,16.89-2.41,15.65-7.71-2.18-4.45-17.17,2.41-15.65Z"/>
    </g>
    <g>
      <path d="M1770.91,465.22c3.53-.46,5.04.56,8.09.71,8.01.41,14.79-7.72,12.62-15.47-.63-2.25-3.38-7.23-4.78-9.24-3.8-5.48-9.15-9.15-15.87-9.44-5.49-.15-10.42,3.26-13.8,7.33-2.68,3.22-5.96,9.61-6.51,13.95-1.06,8.44,7.27,15.49,15.69,13.32,1.59-.41,2.9-1,4.58-1.17h0ZM1771.15,435.44c4.58.21,8.13,2.53,11.13,5.83,1.71,1.88,5.01,7.41,5.79,10.08,1.6,5.48-3.39,11.38-9.04,11.04-1.15-.07-2.27-.44-3.39-.65-1.69-.32-3.36-.26-5.06-.12-2.27.33-3.57,1.01-5.57,1.45-5.65,1.24-11.51-3.78-10.72-9.49.14-1,.46-1.98.79-2.93,2.25-6.6,6.76-14.07,14.33-15.1.45-.06,1.29-.18,1.75-.11h0Z"/>
      <path d="M1792.96,433.16c6.63-.31,11.91-6.41,11.91-12.92,0-3.83-2.41-7.52-6.54-7.49-2.71-.38-5.67,1.33-7.62,3.06-2.49,2.2-4.12,5.48-4.3,8.81-.24,4.31,1.93,8.31,6.56,8.54h0ZM1798.03,416.29c6.24-.05,2.91,12.94-4.88,13.34-2.55-.19-3.34-2.64-3.18-4.89.25-3.61,4.11-8.93,8.05-8.45h0Z"/>
      <path d="M1746.32,435.51c12.54.13,7.86-19.66-4.2-20.1-1.55-.14-3.4.45-4.6,1.43-7.06,5.79.02,17.83,8.8,18.67h0ZM1741.78,419.13c7.82.19,11.68,12.36,4.88,12.84-7.63-.75-11.61-12.22-4.88-12.84Z"/>
      <path d="M1757.94,419.78c5.53.26,9.03-5.11,9.46-10.09.48-5.64-3.04-12.47-9.23-12.94h-.08c-5.78-.1-9.2,6.04-9.26,11.19-.05,5.19,3.32,11.78,9.1,11.84h0ZM1757.88,400.39c4.08.14,6.08,5.16,5.94,8.7-.12,3.02-2.12,7.05-5.57,7.11-6-.39-7.79-10.68-3.2-14.65.79-.68,1.78-1.17,2.84-1.16Z"/>
      <path d="M1780.18,418.65c8.97.25,12.12-13.97,5.48-20.4-1.6-1.55-3.7-2.63-5.97-2.59-2.03-.16-4.12.99-5.51,2.39-6.68,6.81-2.8,20.75,5.99,20.6h0ZM1780.08,399.27c7.58.8,7.19,16-.08,15.83-7.94-1.02-6.93-16.33.08-15.83Z"/>
    </g>
    <g>
      <path d="M1855.32,385.8c3.56.08,4.9,1.31,7.89,1.92,7.86,1.61,15.78-5.42,14.79-13.41-.29-2.32-2.26-7.66-3.34-9.85-2.94-5.98-7.68-10.42-14.28-11.71-5.41-.97-10.79,1.66-14.75,5.17-3.14,2.78-7.34,8.61-8.53,12.82-2.31,8.18,4.87,16.4,13.51,15.52,1.63-.17,3.02-.55,4.7-.47h0ZM1860.02,356.39c4.5.9,7.66,3.72,10.13,7.43,1.41,2.12,3.84,8.08,4.22,10.83.76,5.66-5.06,10.74-10.59,9.56-1.13-.24-2.18-.77-3.26-1.16-1.63-.57-3.28-.76-4.99-.87-2.29-.01-3.68.46-5.73.59-5.77.38-10.81-5.47-9.17-10.99.29-.96.75-1.89,1.22-2.78,3.22-6.19,8.8-12.9,16.43-12.78.46.01,1.3.01,1.74.16h0Z"/>
      <path d="M1881.93,357.41c6.6.69,12.74-4.55,13.71-10.99.57-3.79-1.26-7.79-5.35-8.38-2.62-.79-5.81.47-7.99,1.88-2.8,1.8-4.9,4.8-5.58,8.07-.88,4.23.67,8.5,5.21,9.43h0ZM1889.47,341.49c6.18.88.94,13.23-6.82,12.45-2.49-.57-2.9-3.11-2.41-5.31.79-3.54,5.4-8.22,9.23-7.15h0Z"/>
      <path d="M1835.46,352.74c12.38,2,10.72-18.26-1.14-20.51-1.51-.37-3.43-.07-4.76.73-7.85,4.67-2.66,17.63,5.9,19.78h0ZM1833.43,335.86c7.7,1.36,9.7,13.97,2.9,13.43-7.43-1.88-9.65-13.82-2.9-13.43Z"/>
      <path d="M1849.31,338.93c5.43,1.09,9.69-3.69,10.86-8.56,1.32-5.51-1.14-12.78-7.18-14.18h-.08c-5.7-.98-10,4.58-10.83,9.67-.83,5.12,1.52,12.15,7.23,13.07h0ZM1852.16,319.75c4.02.75,5.23,6.01,4.57,9.49-.57,2.97-3.15,6.65-6.57,6.19-5.87-1.28-6.1-11.73-.97-14.96.88-.56,1.93-.89,2.98-.72Z"/>
      <path d="M1871.47,341.15c8.83,1.59,14.07-12,8.48-19.35-1.35-1.78-3.26-3.16-5.51-3.45-1.98-.47-4.22.36-5.8,1.54-7.63,5.73-5.88,20.1,2.83,21.26h0ZM1874.27,321.97c7.38,1.93,4.71,16.9-2.45,15.64-7.7-2.2-4.4-17.19,2.45-15.64Z"/>
    </g>
    <g>
      <path d="M1770.02,295.31c3.55-.28,5,.81,8.04,1.12,7.98.81,15.16-6.97,13.38-14.82-.52-2.28-3.02-7.39-4.31-9.47-3.52-5.66-8.68-9.6-15.37-10.22-5.48-.43-10.57,2.73-14.16,6.62-2.84,3.08-6.44,9.3-7.2,13.61-1.48,8.37,6.48,15.84,15,14.09,1.61-.33,2.95-.85,4.63-.93h0ZM1771.76,265.58c4.56.45,7.99,2.93,10.82,6.38,1.62,1.97,4.63,7.66,5.28,10.36,1.32,5.55-3.96,11.19-9.58,10.57-1.14-.13-2.24-.55-3.36-.82-1.68-.41-3.34-.43-5.05-.37-2.28.22-3.62.82-5.64,1.16-5.71.96-11.3-4.36-10.23-10.02.19-.99.56-1.95.93-2.88,2.58-6.48,7.46-13.71,15.07-14.36.46-.04,1.3-.12,1.75-.02h0Z"/>
      <path d="M1793.66,264.4c6.64.02,12.22-5.8,12.54-12.3.19-3.83-2.03-7.63-6.16-7.81-2.69-.52-5.73,1.05-7.77,2.67-2.6,2.07-4.39,5.27-4.74,8.58-.45,4.3,1.51,8.39,6.12,8.86h0ZM1799.58,247.81c6.24.26,2.26,13.07-5.54,13.07-2.54-.32-3.2-2.8-2.93-5.04.43-3.6,4.55-8.71,8.47-8.04h0Z"/>
      <path d="M1746.96,264.4c12.52.76,8.84-19.24-3.18-20.29-1.54-.22-3.42.28-4.66,1.2-7.34,5.43-.88,17.81,7.84,19.09h0ZM1743.25,247.81c7.8.59,11.05,12.93,4.23,13.07-7.58-1.13-10.98-12.79-4.23-13.07Z"/>
      <path d="M1759.36,249.27c5.51.54,9.28-4.64,9.95-9.6.77-5.61-2.41-12.61-8.56-13.39h-.08c-5.77-.39-9.49,5.57-9.81,10.71-.32,5.18,2.73,11.93,8.5,12.28h0ZM1760.28,229.9c4.07.34,5.81,5.46,5.49,8.99-.27,3.01-2.47,6.93-5.92,6.82-5.97-.69-7.25-11.06-2.46-14.79.82-.64,1.84-1.08,2.89-1.02Z"/>
      <path d="M1781.63,249.27c8.94.7,12.81-13.34,6.5-20.1-1.52-1.63-3.56-2.82-5.83-2.89-2.02-.27-4.17.78-5.62,2.11-7.02,6.46-3.84,20.59,4.95,20.88h0ZM1782.5,229.9c7.53,1.18,6.37,16.34-.88,15.81-7.88-1.42-6.1-16.66.88-15.81Z"/>
    </g>
    <g>
      <path d="M1855.79,202.13c3.56.11,4.88,1.36,7.87,2,7.84,1.68,15.83-5.26,14.93-13.26-.26-2.32-2.18-7.68-3.24-9.89-2.88-6.01-7.57-10.49-14.16-11.85-5.4-1.03-10.8,1.55-14.8,5.02-3.17,2.75-7.42,8.53-8.66,12.73-2.39,8.16,4.7,16.45,13.36,15.65,1.63-.15,3.02-.52,4.7-.42h0ZM1860.79,172.77c4.49.94,7.62,3.79,10.05,7.53,1.39,2.13,3.76,8.12,4.11,10.88.7,5.67-5.16,10.69-10.69,9.45-1.12-.25-2.17-.79-3.24-1.19-1.62-.59-3.27-.79-4.98-.92-2.29-.03-3.69.42-5.73.54-5.78.32-10.75-5.58-9.06-11.08.3-.96.77-1.88,1.24-2.76,3.28-6.16,8.93-12.81,16.56-12.61.46.02,1.3.03,1.74.17h0Z"/>
      <path d="M1882.69,174.01c6.59.75,12.78-4.42,13.82-10.85.61-3.78-1.18-7.81-5.26-8.44-2.61-.81-5.81.41-8.01,1.8-2.81,1.78-4.94,4.75-5.66,8.01-.92,4.22.58,8.51,5.11,9.48h0ZM1890.39,158.17c6.17.95.81,13.24-6.95,12.39-2.49-.6-2.87-3.14-2.35-5.33.83-3.53,5.48-8.16,9.3-7.06h0Z"/>
      <path d="M1836.27,168.88c12.36,2.13,10.91-18.15-.93-20.52-1.51-.39-3.43-.1-4.77.68-7.89,4.59-2.84,17.61,5.7,19.84h0ZM1834.4,151.97c7.69,1.44,9.56,14.07,2.76,13.46-7.41-1.96-9.51-13.91-2.76-13.46Z"/>
      <path d="M1850.26,155.2c5.42,1.14,9.73-3.6,10.95-8.45,1.38-5.5-1.01-12.79-7.04-14.25h-.08c-5.69-1.03-10.04,4.48-10.93,9.56-.88,5.11,1.4,12.16,7.09,13.14h0ZM1853.3,136.05c4.01.79,5.17,6.07,4.47,9.54-.6,2.96-3.22,6.62-6.64,6.13-5.86-1.34-5.99-11.79-.82-14.97.89-.55,1.94-.87,2.98-.69Z"/>
      <path d="M1872.39,157.64c8.81,1.68,14.19-11.86,8.67-19.27-1.33-1.79-3.23-3.19-5.48-3.51-1.98-.49-4.23.31-5.82,1.48-7.69,5.65-6.08,20.04,2.62,21.29h0ZM1875.39,138.49c7.36,2,4.54,16.95-2.61,15.62-7.68-2.28-4.23-17.23,2.61-15.62Z"/>
    </g>
    <g>
      <path d="M1780.59,108.6c3.56,0,4.93,1.19,7.93,1.73,7.9,1.42,15.64-5.79,14.47-13.75-.34-2.31-2.44-7.6-3.57-9.77-3.08-5.91-7.92-10.23-14.55-11.37-5.43-.84-10.74,1.91-14.62,5.52-3.07,2.86-7.13,8.78-8.22,13.02-2.12,8.23,5.25,16.29,13.87,15.2,1.63-.2,3.01-.62,4.69-.58h0ZM1784.59,79.08c4.52.79,7.74,3.54,10.3,7.19,1.46,2.09,4.03,7.99,4.47,10.73.89,5.64-4.8,10.86-10.36,9.81-1.13-.22-2.19-.72-3.28-1.08-1.64-.53-3.3-.68-5.01-.76-2.29.04-3.67.55-5.71.73-5.76.52-10.93-5.21-9.43-10.77.26-.97.71-1.9,1.15-2.8,3.07-6.26,8.49-13.1,16.13-13.16.46,0,1.3-.02,1.75.11h0Z"/>
      <path d="M1806.52,79.59c6.62.53,12.63-4.85,13.45-11.31.48-3.8-1.44-7.76-5.54-8.26-2.64-.72-5.8.61-7.95,2.07-2.75,1.87-4.78,4.92-5.38,8.19-.78,4.25.87,8.49,5.43,9.3h0ZM1813.69,63.49c6.2.74,1.25,13.2-6.53,12.61-2.51-.51-2.98-3.04-2.53-5.25.71-3.55,5.2-8.34,9.06-7.36h0Z"/>
      <path d="M1759.96,76.01c12.43,1.71,10.29-18.51-1.62-20.47-1.52-.34-3.43.02-4.74.84-7.73,4.85-2.24,17.69,6.36,19.63h0ZM1757.52,59.19c7.73,1.18,10.03,13.74,3.21,13.36-7.47-1.71-9.97-13.59-3.21-13.36Z"/>
      <path d="M1773.48,61.87c5.45.96,9.61-3.92,10.66-8.81,1.19-5.54-1.44-12.75-7.51-14.01h-.08c-5.72-.84-9.89,4.82-10.6,9.92-.71,5.14,1.81,12.11,7.53,12.89h0ZM1775.87,42.63c4.03.65,5.37,5.89,4.79,9.38-.5,2.98-3,6.72-6.43,6.35-5.9-1.14-6.38-11.58-1.32-14.94.87-.58,1.91-.94,2.96-.79Z"/>
      <path d="M1795.68,63.58c8.86,1.38,13.79-12.33,8.02-19.55-1.39-1.74-3.33-3.08-5.59-3.32-1.99-.42-4.22.46-5.77,1.68-7.49,5.91-5.41,20.23,3.33,21.19h0ZM1798.03,44.33c7.42,1.75,5.1,16.78-2.08,15.7-7.75-2.02-4.81-17.08,2.08-15.7Z"/>
    </g>
  </g>
</svg>