<?xml version="1.0" encoding="UTF-8"?>
<svg id="Layer_1" data-name="Layer 1" xmlns="http://www.w3.org/2000/svg" viewBox="0 0 32.5 14.1">
  <path d="M.2,8.5l-.2,1.8.2,1.8c0,.1.1.1.1.1.1,0,.1-.1.1-.1l.3-1.8-.3-1.8c0-.1-.1-.1-.1-.1,0,0-.1,0-.1.1"/>
  <path d="M1.4,7.4l-.3,2.9.3,2.9c0,.1.1.1.1.1.1,0,.1-.1.1-.1l.4-2.9-.4-2.9c0-.1-.1-.1-.1-.1l-.1.1"/>
  <path d="M5.2,7l-.2,3.3.2,3.5c0,.1.1.2.2.2s.2-.1.2-.2l.4-3.5-.3-3.3c0-.1-.1-.2-.2-.2-.2,0-.3.1-.3.2"/>
  <path d="M2.7,6.8l-.3,3.5.3,3.3c0,.1.1.2.2.2,0,0,.1-.1.1-.2l.3-3.3-.3-3.5c0-.1-.1-.2-.2-.2,0,.1-.1.1-.1.2"/>
  <path d="M3.9,6.7l-.3,3.6.3,3.4c0,.1.1.2.2.2s.2-.1.2-.2l.3-3.4-.3-3.6c0-.1-.1-.2-.2-.2s-.1.1-.2.2"/>
  <path d="M6.5,4.9l-.3,5.4.3,3.5c0,.1.1.2.2.2.2,0,.3-.1.3-.2l.3-3.5-.3-5.4c0-.1-.1-.2-.2-.2-.2,0-.3.1-.3.2"/>
  <path d="M7.8,3.7l-.2,6.6.2,3.5c0,.2.1.3.3.3.1,0,.3-.1.3-.3l.3-3.5-.3-6.6c0-.2-.1-.3-.3-.3s-.3.1-.3.3"/>
  <path d="M13.1,3.4l-.2,6.9.2,3.3c0,.2.2.4.4.4s.4-.2.4-.4l.2-3.3-.2-7c0-.2-.2-.4-.4-.4-.3.1-.4.2-.4.5"/>
  <path d="M9.1,3.1l-.2,7.2.2,3.4c0,.2.1.3.3.3s.3-.1.3-.3l.2-3.4-.2-7.2c0-.2-.1-.3-.3-.3s-.3.2-.3.3"/>
  <path d="M11.7,3.1l-.2,7.2.2,3.4c0,.2.2.4.4.4s.4-.2.4-.4l.2-3.4-.2-7.2c0-.2-.2-.4-.4-.4s-.4.2-.4.4"/>
  <path d="M10.4,2.9l-.2,7.4.2,3.4c0,.2.1.3.3.3s.3-.1.3-.3l.2-3.4-.2-7.4c0-.2-.2-.3-.3-.3s-.3.1-.3.3"/>
  <path d="M14.4,2l-.2,8.3.2,3.3c0,.2.2.4.4.4s.4-.2.4-.4l.2-3.3-.2-8.3c0-.2-.2-.4-.4-.4s-.4.2-.4.4"/>
  <path d="M15.8,1.3l-.2,9,.2,3.3c0,.2.2.4.4.4s.4-.2.4-.4l.2-3.3-.2-9c0-.2-.2-.4-.4-.4h-.1c-.2,0-.3.2-.3.4"/>
  <path d="M17.4.4c-.3.1-.4.2-.4.5v12.7c0,.2.2.4.4.5h11.1c2.2,0,4-1.8,4-4s-1.8-4-4-4c-.5,0-1.1.1-1.5.3-.3-3.6-3.3-6.4-7-6.4h-.5c-.7,0-1.4.2-2.1.4Z"/>
</svg>